<svg xmlns="http://www.w3.org/2000/svg" width="1240" height="1240"><path d="M523.801 119.25c-.869.688-2.097 2.885-2.73 4.883-.898 2.84-1.795 3.762-4.11 4.225l-2.961.592v21.99c0 20.966.093 22.039 2 23.06 2.282 1.221 5.399.008 6.351-2.472.736-1.917 4.573-1.967 8.159-.107 2.773 1.439 5.384 1.109 6.725-.848.404-.59.741-6.811.75-13.823L538 144h2.487c1.82 0 3.174-1.087 5.041-4.045l2.554-4.045 6.709.295 6.709.295-.033 14.136c-.036 15.758-.588 17.364-5.967 17.364-4.093 0-6.06 2.086-4.578 4.855 2.371 4.429 13.576 3.365 16.831-1.598 1.477-2.252 1.8-5.672 2.091-22.094.274-15.467.07-19.602-1-20.281-.739-.468-4.889-.858-9.222-.867l-7.878-.015.634-3.962c.534-3.339.312-4.133-1.41-5.055-3.154-1.688-5.725-.281-6.968 3.815-2.367 7.801-4.2 12.202-5.083 12.202-.504 0-.917-1.035-.917-2.3 0-3.213-1.831-4.7-5.788-4.7h-3.388l.697-4.124c.904-5.349-1.919-7.632-5.72-4.626m84.399-.05c-.66.66-1.2 1.785-1.2 2.5 0 .928-1.79 1.3-6.259 1.3-5.24 0-6.47-.336-7.548-2.062-.884-1.416-2.117-1.964-3.935-1.75-2.195.259-3.047 1.31-4.991 6.159-1.29 3.216-3.902 8.16-5.806 10.987-1.903 2.827-3.461 6.328-3.461 7.78 0 2.875 1.995 5.123 4.145 4.671 1.075-.226 1.411 2.405 1.624 12.715.223 10.777.555 13.214 1.941 14.25 2.228 1.665 3.822 1.576 5.719-.321 1.284-1.285 1.571-4.231 1.571-16.155 0-14.134.057-14.532 1.853-12.907 1.625 1.471 4.29 1.643 21.75 1.405l19.897-.272.327-2.305c.465-3.284-1.539-5.195-5.449-5.195-2.038 0-3.377-.496-3.374-1.25.006-2.142 3.895-7.75 5.374-7.75.775 0 1.681-.712 2.015-1.582 1.751-4.563-.985-6.418-9.464-6.418-3.811 0-6.929-.418-6.929-.929 0-1.541-3.027-4.071-4.871-4.071-.951 0-2.269.54-2.929 1.2m43.8.3c-1.375.786-3.972 1.445-5.771 1.465-2.619.028-3.492.584-4.375 2.785-.607 1.513-1.55 3.72-2.097 4.906-.73 1.583-.525 3.384.771 6.779 1.418 3.712 1.54 5.121.619 7.141-1.48 3.249-1.477 9.102.004 10.018.829.512.742 1.019-.311 1.809-2.773 2.078-2.923 4.497-.383 6.161 1.316.862 2.86 2.906 3.43 4.541.937 2.689.801 3.063-1.425 3.91-2.758 1.048-3.268 4.072-1.003 5.951 1.658 1.376 6.165.658 11.327-1.804 2.828-1.348 3.748-1.381 6.504-.23 1.765.737 6.07 1.465 9.566 1.617 6.127.268 6.465.155 9.354-3.135 1.648-1.878 3.373-3.414 3.832-3.414.459 0 2.325 1.381 4.146 3.068 4.935 4.572 6.192 5.055 8.657 3.328 3.132-2.194 2.695-3.78-2.345-8.504-4.948-4.637-5.386-6.528-2.893-12.494.884-2.116 2.021-6.767 2.526-10.336.579-4.085 1.65-7.267 2.893-8.59 4.262-4.536 1.958-7.228-6.561-7.666l-5.965-.306-.307-3.701c-.544-6.545-7.643-6.539-8.746.007-1.139 6.767-1.465 7.424-3.035 6.121-.781-.648-1.782-2.584-2.224-4.303-.704-2.737-1.283-3.164-4.679-3.445-2.131-.177-4.792-.964-5.914-1.75-2.458-1.722-2.459-1.722-5.595.071m-164.999 5.623c-5.724 2.283-10.389 9.5-8 12.378 1.948 2.348 4.464 1.788 8.999-2.001 4.713-3.938 6.934-4.335 9.345-1.671 3.311 3.658 1.778 7.349-3.613 8.702-5.577 1.4-5.396 6.725.27 7.969 5.878 1.291 7.753 5.745 3.998 9.5-3.142 3.142-7.489 2.578-11.567-1.5-3.998-3.999-4.199-4.053-7.21-1.943-3.259 2.282-2.757 4.274 2.295 9.114 4.305 4.126 4.8 4.329 10.539 4.329 11.684 0 17.878-6.019 17.099-16.614-.086-1.162-1.315-3.272-2.731-4.688l-2.575-2.576 2.275-3.077c2.558-3.461 2.966-8.637.974-12.36-2.91-5.437-13.241-8.296-20.098-5.562m104.142 5.464c-.629 1.379-1.143 4.806-1.143 7.615 0 4.885.08 5.036 1.829 3.453 1.006-.91 3.256-1.655 5-1.655 2.367 0 3.162-.444 3.136-1.75-.052-2.532-2.078-5.779-5.072-8.126l-2.608-2.045-1.142 2.508m16.253 1.823c-.297.775.193 2.828 1.089 4.561 2.262 4.375 6.308 3.946 8.74-.927 2.079-4.167 1.243-5.006-5.006-5.029-2.773-.01-4.472.482-4.823 1.395m61.619 3.84c.013 1.819.201 1.963.985.75 1.253-1.939 1.253-3 0-3-.55 0-.993 1.012-.985 2.25m10.185-.05c-1.637 1.637-1.532 2.482.945 7.6 2.516 5.197 3.581 4.306 4.541-3.794.568-4.802.493-5.006-1.847-5.006-1.341 0-2.979.54-3.639 1.2m-156.806 1.216c-.299.778-.397 2.691-.219 4.25.256 2.23.897 2.9 3.008 3.144 3.205.37 5.311-2.706 4.383-6.403-.471-1.876-1.268-2.407-3.616-2.407-1.676 0-3.254.628-3.556 1.416M544.2 145.2c-1.919 1.919-1.455 3.376 2.944 9.259 4.12 5.51 6.363 6.634 8.656 4.341 2.027-2.027 1.358-4.64-2.513-9.826-3.765-5.042-6.629-6.232-9.087-3.774m125.204 3.956c-.429.693-.745 3.53-.703 6.302.052 3.437-.524 5.887-1.812 7.696-2.298 3.23-2.374 4.446-.326 5.232 3.477 1.334 10.495-4.809 10.396-9.101-.057-2.463-4.2-10.603-5.617-11.037-.637-.194-1.509.214-1.938.908m-72.657 3.094c-.905 1.567-1.196 5.36-.957 12.5.3 8.982.587 10.381 2.317 11.307 1.537.823 2.71.601 5.301-1 2.351-1.453 5.02-2.057 9.092-2.057 4.072 0 6.741.604 9.092 2.057 2.642 1.633 3.748 1.832 5.368.965 1.868-1 2.04-2.042 2.04-12.357 0-7.428-.409-11.674-1.2-12.465-.821-.821-5.706-1.2-15.477-1.2-13.754 0-14.324.082-15.576 2.25m-74.349 1.155c-.296.772-.395 2.91-.218 4.75.25 2.614.824 3.416 2.625 3.672 1.268.179 2.946-.206 3.73-.856 1.56-1.295 1.653-5.74.161-7.721-1.275-1.694-5.63-1.587-6.298.155m81.986 6.037c-.304.792-.398 2.255-.208 3.25.29 1.516 1.538 1.856 7.738 2.105 8.157.328 9.654-.4 8.694-4.224-.622-2.478-.922-2.573-8.158-2.573-5.62 0-7.652.363-8.066 1.442m49.159 2.489c-.317.512-.118 1.213.441 1.559 1.193.737 3.016-.199 3.016-1.549 0-1.217-2.707-1.225-3.457-.01M326.5 263.919c-6.937 1.697-11.892 6.699-9.496 9.586 1.677 2.021 3.909 1.871 7.496-.505 5.634-3.731 13.5-1.621 13.5 3.622 0 4.972-2.503 7.124-10.25 8.816-2.075.453-2.75 1.193-2.75 3.014 0 2.515.697 2.901 7.221 4.001 4.375.737 6.779 3.644 6.779 8.197 0 7.306-10.015 9.91-16.435 4.273-3.691-3.241-6.809-3.336-7.995-.244-1.71 4.456 7.128 10.321 15.552 10.321 15.277 0 22.829-17.003 11.298-25.435-1.878-1.373-1.87-1.457.354-3.824 9.331-9.933-1.371-25.223-15.274-21.822m726.594 1.328c-7.463 2.48-11.976 10.093-10.465 17.649 1.34 6.697 10.782 13.043 17.06 11.467 3.507-.88 2.909 1.133-2.779 9.362-4.833 6.991-5.675 10.275-2.633 10.275 2.287 0 4.173-2.173 10.418-12 7.888-12.413 8.983-14.656 9.772-20.013 1.641-11.137-10.239-20.442-21.373-16.74M204 266.121c-3.524 1.401-8 5.914-8 8.066 0 2.442 2.616 2.296 4.76-.266 2.196-2.624 6.51-4.921 9.24-4.921 6.275 0 11.045 6.4 8.785 11.788-.626 1.492-6.498 8.159-13.05 14.815-9.541 9.694-11.845 12.581-11.574 14.5.338 2.388.395 2.398 14.76 2.676 9.277.179 14.804-.104 15.492-.792 2.054-2.054-1.791-2.956-12.663-2.972-8.092-.011-10.75-.333-10.75-1.302 0-.709 4.405-5.546 9.789-10.75 13.347-12.902 15.816-18.793 10.926-26.065-3.391-5.045-11.525-7.238-17.715-4.777m492.748-.04c-1.914 1.115-6.748 8.268-13.443 19.895-3.695 6.416-4.305 8.283-4.305 13.173 0 4.688.464 6.249 2.619 8.81 3.689 4.384 7.442 6.041 13.683 6.041 9.865 0 16.216-6.785 15.382-16.435-.364-4.216-1.014-5.483-4.467-8.703-3.165-2.953-5.143-3.916-9.129-4.445-2.798-.371-5.088-1.137-5.088-1.702 0-.564 2.084-4.077 4.632-7.806 2.8-4.098 4.394-7.398 4.031-8.344-.693-1.807-1.477-1.904-3.915-.484m234.667.34c-7.328 3.191-9.726 11.679-4.915 17.397 2.974 3.534 3.095 4.637.7 6.375-7.069 5.131-6.786 15.405.569 20.642 6.275 4.469 15.646 3.567 21.121-2.034 2.697-2.759 3.11-3.892 3.11-8.54 0-4.777-.382-5.754-3.515-8.98-3.502-3.606-3.508-3.627-1.567-5.7 4.759-5.082 4.762-11.748.005-16.504-4.05-4.05-9.975-5.064-15.508-2.656m241.899.043c-7.436 3.234-11.582 16.396-9.46 30.028 1.251 8.031 4.518 13.508 9.458 15.852 9.08 4.308 18.371-.855 21.521-11.96 1.466-5.172 1.5-16.625.063-21.884-2.924-10.707-12.439-16.013-21.582-12.036M83.25 270.04c-3.161 2.439-5.25 4.829-5.25 6.006 0 2.484 1.79 2.496 4.436.029 4.867-4.54 5.026-4.057 5.564 16.925.479 18.667.585 19.5 2.5 19.5 1.942 0 2-.667 2-23 0-22.248-.065-23.008-2-23.256-1.108-.142-4.343 1.552-7.25 3.796m371.603-2.337c-.848.988-5.457 7.854-10.243 15.258-6.174 9.55-8.616 14.198-8.406 16 .291 2.497.452 2.544 9.796 2.815 10.447.303 12.297 1.29 11.423 6.097-.594 3.271.859 5.617 2.976 4.804 1.14-.437 1.601-1.911 1.601-5.117 0-4.241.189-4.552 3.25-5.345 4.163-1.079 4.176-3.348.026-4.423l-3.224-.836-.276-15.228-.276-15.228-2.552-.297c-1.517-.177-3.178.432-4.095 1.5m107.81-.953c-.857 1.413-1.879 17.994-1.234 20.025.581 1.832 1.235 1.975 6.748 1.475 7.389-.67 11.918 1.323 14.27 6.28 2.011 4.237 1.957 5.295-.473 9.28-2.718 4.459-8.016 6.661-12.48 5.188-1.834-.605-3.875-1.752-4.536-2.549-1.555-1.874-5.958-1.902-5.958-.038 0 2.308 5.641 6.352 9.853 7.064 5.758.973 11.456-.924 15.041-5.007 3.598-4.098 4.57-7.221 3.774-12.128-1.238-7.625-6.101-11.594-15.12-12.34l-6.048-.5-.295-5.59c-.199-3.77.143-5.954 1.05-6.706.739-.614 5.142-1.249 9.784-1.41 7.104-.248 8.492-.571 8.773-2.044.303-1.585-.753-1.75-11.18-1.75-6.333 0-11.719.337-11.969.75m238.855.222c-1.443 2.334 1.068 3.028 10.958 3.028 7.18 0 10.48.369 10.758 1.203.221.661-3.773 10.133-8.875 21.047-7.524 16.094-8.986 19.956-7.74 20.434.845.324 2.172-.046 2.948-.823 2.374-2.374 19.554-41.013 19.233-43.258-.285-1.999-.95-2.117-13.473-2.381-8.249-.175-13.411.105-13.809.75m334.732 3.068c-3.161 2.439-5.25 4.829-5.25 6.006 0 2.484 1.79 2.496 4.436.029 4.867-4.54 5.026-4.057 5.564 16.925.479 18.667.585 19.5 2.5 19.5 1.942 0 2-.667 2-23 0-22.248-.065-23.008-2-23.256-1.108-.142-4.343 1.552-7.25 3.796m-203.362.46c-3.974 2.159-5.435 6.542-3.456 10.368 2.929 5.664 9.365 6.903 13.922 2.68 3.654-3.387 3.549-7.799-.277-11.625-3.196-3.196-6.164-3.611-10.189-1.423m242.344-.272c-1.247.602-3.272 2.709-4.5 4.683-1.957 3.146-2.232 4.946-2.232 14.589 0 9.681.271 11.435 2.259 14.632 4.126 6.635 11.845 7.505 16.587 1.869 4.627-5.499 5.747-20.874 2.156-29.602-2.45-5.956-8.915-8.751-14.27-6.171m-121.875.71c-5.521 2.366-7.042 9.991-2.944 14.756 2.106 2.449 3.122 2.806 7.973 2.806 4.451 0 6.012-.454 7.836-2.278 3.11-3.109 3.185-10.26.14-13.304-2.388-2.388-9.519-3.474-13.005-1.98m-598.108 2.908c-2.165 1.338-14.351 21.446-13.826 22.814.586 1.528 12.156 1.893 14.426.455.993-.63 1.365-3.79 1.41-11.992.033-6.125-.137-11.334-.378-11.575-.241-.242-.976-.108-1.632.298m233.788 17.43c-1.354.685-3.085 2.882-3.846 4.881-3.658 9.612 8.581 17.113 16.732 10.254 2.562-2.155 3.077-3.312 3.077-6.911 0-3.599-.515-4.756-3.077-6.911-3.423-2.881-8.721-3.421-12.886-1.313m244.233-.616c-5.327 1.132-8.188 10.157-4.767 15.041 1.923 2.745 7.65 4.644 11.473 3.804 3.844-.844 8.024-5.827 8.024-9.566 0-6.153-7.427-10.831-14.73-9.279M202.5 351.964c-4.557 2.373-7.938 6.453-7.118 8.589.899 2.344 3.792 1.67 7.259-1.689 4.39-4.256 10.596-4.452 14.043-.445 4.498 5.23 2.491 9.145-12.08 23.565C188.185 398.233 188.65 400 209.352 400c13.837 0 15.648-.357 15.648-3.088 0-2.397-2.088-2.855-14.404-3.164l-9.904-.248 10.994-11c9.104-9.109 11.208-11.788 12.237-15.583 1.037-3.821.999-5.168-.227-8.101-3.141-7.52-13.49-10.865-21.196-6.852m728.52-.268c-4.183 2.169-8.02 7.581-8.02 11.312 0 1.492 1.125 4.371 2.5 6.397s2.487 4.001 2.472 4.389c-.015.388-1.321 1.974-2.901 3.524C916.298 385.921 924.2 400 937.8 400c12.904 0 20.207-15.242 11.172-23.316l-3.152-2.817 2.59-3.737c2.918-4.211 3.321-8.815 1.141-13.031-3.123-6.039-12.2-8.686-18.531-5.403m-885.982 3.935c-5.979 4.494-7.669 7.39-4.288 7.347.962-.012 2.875-.902 4.25-1.978 4.894-3.829 5-3.46 5 17.441 0 12.921.365 19.666 1.087 20.113 2.721 1.681 3.2-1.881 3.059-22.749-.078-11.718-.144-21.819-.144-22.448-.004-2.804-3.331-1.96-8.964 2.274m120.688-.425c-3.89 2.949-5.675 4.999-5.696 6.544-.038 2.86 2.159 2.909 5.915.132 1.576-1.165 3.379-1.8 4.006-1.412.799.494 1.093 6.271.979 19.237-.167 18.964.212 20.943 3.747 19.587 1.102-.423 1.308-4.979 1.091-24.158-.261-22.981-.325-23.644-2.322-23.93-1.208-.173-4.388 1.474-7.72 4M293 351.789c-1.62.563-10.063 7.103-11.184 8.663-2.105 2.931 3.076 3.43 5.684.548 2.034-2.247 4.458-2.644 4.581-.75.044.688.033 9.125-.026 18.75-.058 9.625.31 18.128.819 18.896.508.767 1.645 1.119 2.525.781 1.402-.538 1.601-3.399 1.601-23.023 0-23.048-.349-25.132-4-23.865m30.5.156c-3.396 1.39-6.035 4.92-4.687 6.268.889.889 2.095.645 5.063-1.023 7.668-4.31 15.124-1.495 15.124 5.708 0 4.451-2.754 7.492-7.998 8.834-5.316 1.359-5.099 3.876.405 4.702 8.808 1.321 12.45 9.863 6.67 15.643-2.47 2.47-3.717 2.923-8.048 2.923-4.182 0-5.551-.46-7.441-2.5-2.516-2.715-6.588-3.377-6.588-1.071 0 .785.738 2.166 1.64 3.068 3.676 3.677 6.333 4.665 12.461 4.636 5.327-.026 6.713-.44 9.802-2.928 6.919-5.575 7.393-14.708 1.007-19.429-1.6-1.184-2.91-2.436-2.91-2.784 0-.347 1.35-2.144 3-3.992 4.908-5.497 3.507-13.497-3.04-17.364-2.919-1.725-10.992-2.11-14.46-.691m87.894 1.657c-5.377 3.601-8.394 6.503-8.394 8.072 0 2.022 3.099 1.582 5.635-.801 1.31-1.231 2.93-1.87 3.847-1.518 1.374.527 1.569 3.139 1.473 19.716-.06 10.509.131 19.348.425 19.642.293.294 1.228.268 2.077-.058 1.327-.509 1.543-3.726 1.543-23.001 0-25.754-.18-26.356-6.606-22.052m44.94-1.123C452.588 355.102 436 381.132 436 384.385c0 2.873 2.796 3.615 13.625 3.615 7.934 0 7.76-.14 7.468 6-.157 3.293 1.326 5.437 3.249 4.699 1.023-.393 1.648-2.194 1.851-5.337.286-4.42.53-4.802 3.557-5.582 1.788-.46 3.25-1.486 3.25-2.28 0-.794-1.462-1.821-3.25-2.284l-3.25-.841-.277-14.666c-.245-12.989-.484-14.778-2.095-15.641-1.277-.683-2.408-.56-3.794.411M529 355.477c-3.025 2.494-5.5 5.32-5.5 6.279 0 2.519 3.776 2.701 5.96.288 4.106-4.537 4.481-3.185 4.768 17.206l.272 19.25h5v-47l-2.5-.279c-1.746-.194-4.159 1.089-8 4.256m32.618-2.925c-.34.886-.618 6.336-.618 12.109v10.498l6.25-.66c7.639-.807 11.072.369 13.797 4.726 2.598 4.154 1.988 9.195-1.539 12.721-3.348 3.348-10.39 3.453-13.845.208-4.225-3.97-9.231-2.197-6.324 2.24 3.673 5.607 14.149 7.258 21.161 3.335 5.235-2.928 8.827-9.613 8.136-15.142-.945-7.56-7.858-13.587-15.584-13.587-2.559 0-5.093-.441-5.632-.98-.538-.538-.741-3.351-.45-6.25l.53-5.27 9.5-.5c8.667-.456 9.5-.675 9.5-2.5 0-1.875-.76-2.018-12.132-2.28-10.401-.24-12.219-.05-12.75 1.332m89.481 3.033c-5.939 4.464-7.732 7.415-4.507 7.415.876 0 2.737-.9 4.135-2 5.152-4.053 5.273-3.652 5.273 17.531 0 16.986.209 19.612 1.601 20.146.88.338 1.999-.014 2.485-.781.486-.768.89-10.926.899-22.575.013-17.933-.226-21.419-1.556-22.75-.865-.864-1.72-1.571-1.901-1.571-.182 0-3.074 2.063-6.429 4.585m45.654-3.303c-1.709 1.351-11.639 16.615-14.657 22.53-4.469 8.76-3.541 16.027 2.705 21.176 3.138 2.586 4.478 3.012 9.477 3.012 10.309 0 15.722-4.82 15.722-14 0-8.732-5.438-14-14.45-14-5.888 0-5.895-1.298-.05-9.659 2.475-3.54 4.5-7.064 4.5-7.83 0-2.053-1.49-2.617-3.247-1.229m76.569 2.334c-7.555 5.654-9.176 8.384-4.977 8.384 1.29 0 3.16-.9 4.155-2 4.076-4.504 4.442-3.132 4.729 17.75.261 18.993.348 19.75 2.271 19.75 1.933 0 2.009-.756 2.269-22.705.255-21.62.175-22.754-1.678-23.746-1.59-.851-2.83-.381-6.769 2.567m28.058-2.164c-1.13 2.944.765 3.548 11.12 3.548 5.71 0 10.602.356 10.871.79.268.435-.133 2.123-.892 3.75a5952.122 5952.122 0 0 1-8.929 18.843c-7.574 15.933-8.733 19.617-6.172 19.617 2.086 0 3.028-1.533 8.923-14.52 2.99-6.589 7.071-15.5 9.068-19.803 4.267-9.194 4.584-12.188 1.381-13.047-1.237-.331-7.327-.609-13.531-.616-8.95-.011-11.397.286-11.839 1.438m91.309 3.111c-3.696 2.902-5.694 5.172-5.489 6.238.473 2.456 3.075 2.562 5.759.235 4.855-4.211 5.041-3.567 5.041 17.464V399h2.393c1.316 0 2.666-.712 3-1.582 1.06-2.762.678-42.416-.428-44.484-1.582-2.955-3.927-2.355-10.276 2.629m157.722-2.672c-5.084 3.1-7.411 6.829-7.411 11.876 0 8.435 5.883 14.314 14.696 14.685 2.348.099 4.567.478 4.931.842.365.364-1.653 4.089-4.482 8.278-2.83 4.188-5.145 8.248-5.145 9.022 0 1.512 1.807 1.833 3.612.641 2.126-1.404 15.446-23.759 16.515-27.716 2.968-10.994-3.512-19.524-14.827-19.515-2.935.002-6 .735-7.889 1.887m84.089-.724c-3.525 1.95-6.5 5.13-6.5 6.948 0 3.027 2.205 3.348 4.519.658 4.232-4.92 9.123-6.044 14.409-3.31 3.091 1.598 4.072 3.345 4.072 7.251 0 3.992-3.032 7.963-14.938 19.563-15.458 15.059-15.149 15.919 5.563 15.502 12.266-.247 13.889-.479 14.186-2.029.304-1.585-.751-1.75-11.179-1.75-6.333 0-11.753-.387-12.046-.86-.292-.473 4.359-5.761 10.336-11.75 8.815-8.834 11.09-11.721 12.051-15.289 2.415-8.97-3.541-16.129-13.371-16.071-2.806.017-6.002.529-7.102 1.137m36.1 1.88c-4.961 4.355-7.095 10.659-7.095 20.953 0 10.153 1.988 16.147 6.952 20.959 3.036 2.942 4.063 3.327 8.883 3.327 10.279 0 15.698-7.187 16.467-21.836.586-11.155-1.452-17.993-6.802-22.826-3.578-3.233-4.6-3.624-9.473-3.624-4.662 0-5.971.446-8.932 3.047M82.808 355.792c-4.861 3.841-6.245 7.208-2.963 7.208 1.015 0 2.66-.9 3.655-2 4.122-4.554 4.5-3.135 4.5 16.878 0 15.965.243 19.079 1.576 20.185 2.944 2.444 3.42-1.093 3.169-23.563l-.245-22-2.5-.208c-1.594-.132-4.201 1.136-7.192 3.5m932.201-.16c-6.573 5.166-7.668 7.368-3.664 7.368 1.29 0 3.16-.9 4.155-2 4.14-4.575 4.5-3.172 4.5 17.531 0 16.986.209 19.612 1.601 20.146.88.338 1.999-.014 2.485-.781.984-1.555 1.264-41.822.307-44.314-.972-2.532-4.547-1.751-9.384 2.05m38.247.343c-3.423 1.458-6.44 6.959-5.772 10.525.913 4.876 5.569 8.773 10.483 8.773 5.424 0 8.569-1.775 10.553-5.956 1.856-3.911.815-8.799-2.517-11.814-2.245-2.032-9.516-2.903-12.747-1.528m119.761 1.854c-3.543 3.543-5.004 8.698-5.011 17.678-.007 8.744 1.198 13.052 4.661 16.668 2.16 2.254 3.588 2.825 7.068 2.825 5.047 0 8.327-2.776 10.453-8.847 1.624-4.635 1.589-17.508-.06-22.37-2.844-8.382-11.627-11.438-17.111-5.954m-241.944.806c-2.75 3.495-2.618 6.911.382 9.91 5.288 5.289 13.545 1.751 13.545-5.803 0-4.441-2.782-6.742-8.15-6.742-2.811 0-4.205.635-5.777 2.635m-479.425 5.615l-6.988 11.019c-2.013 3.174-3.66 6.211-3.66 6.75 0 1.139 15.988 1.369 16.023.231.088-2.847.146-20.992.071-22-.194-2.576-2.223-1.086-5.446 4m235.275 13.673C684.631 380.216 684 381.742 684 385c0 6.067 4.125 10 10.489 10 5.676 0 8.032-1.173 10.001-4.98 3.994-7.724-1.092-15.02-10.471-15.02-3.279 0-4.799.626-7.096 2.923m247.361-1.218c-2.751.528-7.284 5.768-7.284 8.421 0 8.548 11.209 12.731 17.75 6.626 3.186-2.974 3.086-9.007-.205-12.297-1.35-1.35-3.113-2.455-3.918-2.455-.805 0-2.063-.162-2.795-.36-.733-.197-2.329-.168-3.548.065M48.5 433.532c-.55.161-2.203.557-3.673.88-4.013.882-8.827 5.358-8.827 8.208 0 4.031 2.758 4.035 6.445.01 2.755-3.008 4.006-3.63 7.305-3.63 7.88 0 11.806 6.733 7.596 13.027-.909 1.36-6.759 7.69-13 14.066-15.9 16.245-15.604 17.1 5.778 16.685 13.131-.254 14.382-.438 14.712-2.158.578-3.013-1.721-3.672-12.073-3.46-5.355.11-10.05-.114-10.433-.497-.383-.383 3.877-5.076 9.466-10.43 13.144-12.589 15.736-18.567 11.244-25.934-2.595-4.258-10.52-7.946-14.54-6.767m360 .958c-6.911 2.464-12.123 10.381-7.43 11.285.852.164 3.187-1.293 5.189-3.238 4.609-4.476 9.989-4.89 14.095-1.085 5.351 4.96 2.842 9.794-13 25.048-8.077 7.777-10.383 10.588-10.37 12.643.009 1.476.714 2.911 1.598 3.25.87.334 7.358.607 14.418.607 13.585 0 16-.388 16-2.572 0-2.449-3.963-3.551-12.298-3.42-4.511.071-9.077.098-10.147.06-1.421-.05 1.041-3.097 9.142-11.318 11.606-11.778 13.866-15.687 12.632-21.853-1.483-7.418-11.748-12.287-19.829-9.407m363.815-.386c-3.91 1.129-9.315 6.353-9.315 9.004 0 3.584 2.959 3.376 6.695-.47 2.825-2.909 4.284-3.638 7.284-3.638 5.589 0 9.021 3.108 9.021 8.168 0 3.797-.694 4.735-12.344 16.678-6.789 6.96-12.62 13.428-12.958 14.375-.34.956.067 2.401.916 3.25 2.135 2.135 28.541 2.252 30.298.135.895-1.078.779-1.772-.513-3.064-1.371-1.371-3.431-1.626-11.521-1.426-5.418.134-10.136-.04-10.483-.387-.347-.348 3.323-4.366 8.155-8.93 10.741-10.145 14.45-15.628 14.45-21.36 0-8.691-10.188-15.075-19.685-12.335m363.185-.031c-4.61 1.373-8.751 5.111-7.955 7.183.871 2.27 2.654 2.203 6.681-.252 4.537-2.767 9.276-2.593 12.319.451 1.35 1.35 2.455 3.62 2.455 5.045 0 3.173-3.838 7.201-7.664 8.043-4.973 1.094-5.491 1.415-5.149 3.189.213 1.105 1.606 1.949 3.824 2.318 6.88 1.143 10.019 4.181 9.957 9.634-.09 7.981-10.232 11.067-17.468 5.316-4.305-3.421-4.805-3.543-6.447-1.564-1.534 1.849-.114 4.639 3.598 7.071 7.008 4.592 16.851 3.665 22.453-2.114 3.008-3.104 3.396-4.12 3.396-8.893 0-4.771-.389-5.79-3.389-8.885l-3.388-3.497 2.639-3.136c3.389-4.028 4.106-7.035 2.695-11.308-1.391-4.217-3.765-6.45-8.741-8.225-4.379-1.562-5.665-1.611-9.816-.376m40.104-.035c-3.389 1.015-8.19 5.327-10.189 9.154-3.445 6.594-3.455 23.963-.018 30.61 5.621 10.868 18.647 12.931 25.805 4.087 5.315-6.567 7.177-19.119 4.39-29.589-1.834-6.887-4.995-11.125-9.993-13.395-4.505-2.045-5.707-2.15-9.995-.867M89 434.81c-.825.283-3.885 2.312-6.799 4.51-3.789 2.856-5.214 4.568-5 6.009.447 3.01 2.191 3.054 5.653.141 1.708-1.437 3.587-2.315 4.177-1.951.709.439 1.013 6.915.9 19.188-.181 19.508.228 21.348 4.265 19.188 1.65-.883 1.803-2.731 1.79-21.68-.016-25.053-.395-26.982-4.986-25.405m76.122.564c-3.302 1.195-8.122 5.772-8.122 7.713 0 2.495 3.337 1.978 6.401-.991 7.841-7.6 19.648-2.396 17.15 7.559-.376 1.494-6.143 8.232-13.198 15.417-8.561 8.719-12.42 13.343-12.18 14.595.32 1.667 1.736 1.858 15.668 2.109 14.217.257 15.291.149 14.976-1.5-.298-1.551-1.728-1.812-11.315-2.062-6.036-.158-11.334-.646-11.773-1.085-.438-.438 3.525-5.035 8.807-10.213 11.292-11.07 13.568-14.404 13.646-19.986.13-9.474-9.879-15.239-20.06-11.556m38.878-.253c-3.524 1.401-8 5.914-8 8.066 0 2.486 3.639 2.357 4.994-.177 1.176-2.196 5.981-5.01 8.555-5.01 3.427 0 8.322 3.191 9.33 6.082 1.635 4.692-.728 8.401-13.316 20.902-9.197 9.133-11.563 12.049-11.563 14.25V482h14.833c8.159 0 15.13-.296 15.492-.658.362-.362.156-1.262-.456-2-.807-.972-4.112-1.342-11.991-1.342-7.959 0-10.878-.331-10.878-1.234 0-.678 4.51-5.598 10.023-10.932C220.865 456.31 224 451.635 224 446.482c0-8.58-11.114-14.894-20-11.361m82.333.28C282.12 437.307 279 440.539 279 443c0 2.985 2.646 2.428 5.932-1.25 2.462-2.755 3.589-3.25 7.405-3.25 7.732 0 11.906 6.263 8.542 12.816-.617 1.201-6.507 7.664-13.088 14.361-8.116 8.26-11.853 12.764-11.616 14 .318 1.655 1.766 1.849 15.666 2.099 14.217.257 15.291.149 14.976-1.5-.296-1.546-1.698-1.81-10.829-2.041-5.768-.146-11.124-.497-11.902-.781-.951-.348 2.206-4.19 9.642-11.735 12.408-12.59 14.493-16.489 12.328-23.049-2.18-6.606-12.653-10.466-19.723-7.269m36.367.693c-4.203 2.218-5.708 4.665-3.651 5.936.842.52 2.431.052 4.271-1.258 3.879-2.762 10.723-2.947 13.575-.367 2.672 2.418 2.826 8.484.293 11.611-1.054 1.302-3.459 2.505-5.75 2.878-3.045.495-3.938 1.09-3.938 2.623 0 1.473.771 2.056 3 2.268 4.353.414 7.473 2.261 9.085 5.38 2.098 4.057 1.743 6.436-1.503 10.069-2.561 2.866-3.532 3.266-7.934 3.266-4.165 0-5.527-.489-8.023-2.88-1.826-1.75-3.617-2.645-4.565-2.281-2.576.988-1.778 3.393 2.112 6.36 3.162 2.412 4.586 2.801 10.25 2.801 8.093 0 12.125-2.438 14.555-8.802 1.963-5.139 1.038-8.5-3.686-13.398l-3.086-3.2 3.147-3.585c9.607-10.941-4.599-24.574-18.152-17.421m133.533-1.426c-1.245.501-16.761 23.584-19.789 29.44-1.871 3.619-1.088 6.709 1.873 7.388 1.2.275 5.783.614 10.183.752l8 .252.319 4.484c.353 4.959 1.634 6.379 4.414 4.891 1.381-.739 1.784-1.965 1.61-4.903-.26-4.417-.4-4.206 3.657-5.536 1.65-.541 3-1.637 3-2.436 0-.799-1.35-1.895-3-2.436-1.65-.541-3.178-1.105-3.396-1.253-.217-.148-.304-6.52-.192-14.161.172-11.688-.055-14.15-1.426-15.521-1.649-1.649-2.952-1.887-5.253-.961m72.767.453c-3.524 1.401-8 5.914-8 8.066 0 2.626 3.466 2.277 5.308-.534 3.88-5.922 14.087-5.657 17.244.447 2.65 5.125.651 8.558-12.63 21.693-9.391 9.288-11.922 12.366-11.922 14.499V482h14.833c8.159 0 15.13-.296 15.492-.658.362-.362.156-1.262-.456-2-.807-.972-4.112-1.342-11.991-1.342-8.042 0-10.875-.326-10.866-1.25.006-.687 3.91-4.846 8.675-9.242C545.246 457.769 549 452.227 549 446.381c0-8.94-10.694-14.96-20-11.26m120.415.3c-2.99 1.302-7.415 5.924-7.415 7.745 0 2.409 3.345 1.861 6.15-1.008 3.792-3.879 8.52-4.897 12.699-2.736 4.064 2.101 5.492 4.948 4.672 9.316-.519 2.769-3.337 6.237-13.121 16.144-16.564 16.775-16.593 16.618 3.1 16.618 12.667 0 15-.233 15-1.5 0-1.225-2.015-1.552-10.986-1.786-6.043-.158-11.384-.684-11.871-1.171-.513-.513 3.193-4.782 8.814-10.157C667.01 456.798 670 452.212 670 446.117c0-8.988-11.174-14.793-20.585-10.696m151.495.187c-1.135 1.368-1.042 1.824.628 3.054 1.442 1.062 4.409 1.382 11.193 1.207 5.078-.132 9.534.063 9.903.432.37.369-3.477 9.499-8.549 20.287-5.071 10.789-8.979 20.245-8.684 21.014.719 1.873 3.045 1.77 4.687-.208 1.868-2.251 18.927-39.315 19.585-42.552.814-4.004-1.866-4.842-15.485-4.842-9.753 0-12.188.295-13.278 1.608m91.423-.152C888.155 437.273 885 440.519 885 443c0 2.985 2.646 2.428 5.932-1.25 2.462-2.755 3.589-3.25 7.405-3.25 7.732 0 11.906 6.263 8.542 12.816-.617 1.201-6.507 7.664-13.088 14.361-8.116 8.26-11.853 12.764-11.616 14 .318 1.655 1.766 1.849 15.666 2.099 14.217.257 15.291.149 14.976-1.5-.296-1.546-1.698-1.81-10.829-2.041-5.768-.146-11.137-.502-11.929-.792-.99-.362 1.878-3.883 9.149-11.235 13.924-14.079 15.628-17.537 12.199-24.763-1.033-2.177-3.077-4.075-5.816-5.401-4.879-2.362-8.783-2.535-13.258-.588m39.167-.053c-4.454 1.966-6.678 4.998-7.225 9.852-.409 3.628-.063 4.843 2.118 7.435 1.434 1.704 2.607 3.429 2.607 3.833 0 .404-1.575 2.478-3.5 4.609-12.453 13.784 10.379 29.977 23.437 16.621 2.618-2.678 3.063-3.883 3.063-8.303 0-4.552-.426-5.622-3.559-8.944l-3.559-3.773 2.726-2.845c3.699-3.862 3.844-10.691.309-14.525-4.576-4.962-10.765-6.455-16.417-3.96m82 .46c-2.2 1.001-4.493 2.454-5.095 3.229-4.128 5.31-.939 7.788 3.938 3.06 4.053-3.928 8.362-4.873 12.489-2.739 4.096 2.118 5.51 4.949 4.681 9.368-.528 2.817-3.307 6.256-13.18 16.312-8.547 8.704-12.4 13.323-12.16 14.574.32 1.667 1.736 1.858 15.668 2.109 14.217.257 15.291.149 14.976-1.5-.298-1.551-1.728-1.812-11.315-2.062-6.036-.158-11.359-.671-11.829-1.141-.472-.472 3.053-4.591 7.887-9.214 12.283-11.747 14.44-14.932 14.44-21.322 0-4.33-.444-5.586-2.75-7.786-5.236-4.995-11.041-5.939-17.75-2.888m37.771.101c-5.944 2.698-8.489 7.09-7.994 13.794.605 8.176 6.607 13.242 15.691 13.242 2.218 0 4.031.337 4.029.75-.001.413-2.25 4.125-4.997 8.25-5.479 8.227-6.01 10-2.993 10 2.027 0 7.083-7.021 14.762-20.5 6.496-11.404 5.109-20.792-3.731-25.25-5.429-2.738-9.206-2.811-14.767-.286m-488.803.26c-.273.709-.602 5.786-.732 11.283l-.236 9.993 6.162-.339c9.44-.518 14.207 2.324 15.721 9.372 1.45 6.751-7.01 13.735-13.889 11.465-1.834-.605-3.875-1.752-4.536-2.549-1.411-1.7-4.553-1.914-5.504-.375-.971 1.572 3.307 5.692 7.268 6.999 13.193 4.354 25.633-9.026 19.526-21.002-2.667-5.232-6.476-7.497-13.57-8.071l-6.178-.5-.295-5.59c-.199-3.77.143-5.954 1.05-6.706.739-.614 5.147-1.249 9.795-1.41 6.714-.234 8.45-.602 8.45-1.794 0-2.054-22.254-2.804-23.032-.776m131.261 3.329c-15.046 21.214-17.723 30.983-10.51 38.36 6.268 6.41 16.659 6.444 23.028.075 3.377-3.377 3.753-4.274 3.753-8.966 0-3.145-.686-6.374-1.728-8.139-2.117-3.584-8.63-6.883-13.588-6.883-2.297 0-3.684-.475-3.684-1.261 0-.693 2.025-4.279 4.5-7.968 2.475-3.69 4.5-7.397 4.5-8.24 0-2.964-3.076-1.481-6.271 3.022m239.159-.094c-1.437.803-3.144 2.746-3.795 4.317-3.39 8.183 7.601 14.944 14.261 8.772 7.022-6.508-2.017-17.811-10.466-13.089m120.096.408c-10.763 5.769-4.323 20.902 7.928 18.629 4.449-.825 6.695-2.775 8.1-7.031 1.542-4.674-.667-9.599-5.29-11.793-4.51-2.14-6.446-2.105-10.738.195m119.949 2.205c-3.256 3.486-4.406 7.773-4.406 16.428 0 8.655 1.15 12.942 4.406 16.428 5.696 6.098 14.655 2.737 16.945-6.357 1.422-5.647 1.432-14.914.022-19.992-2.571-9.261-11.276-12.599-16.967-6.507m-722.981 9.178c-2.351 3.988-5.103 8.323-6.114 9.635-3.429 4.449-2.566 5.232 5.412 4.909l7.25-.294.284-10.75c.351-13.292-.73-13.846-6.832-3.5m238.874 8.462c-7.775 4.824-5.361 17.159 3.691 18.857 4.466.838 10.519-2.093 12.368-5.987 4.263-8.98-7.34-18.279-16.059-12.87m244.469.435C929.253 461.266 927 464.434 927 469c0 4.6 2.14 7.561 6.507 9.002 4.736 1.563 8.927.459 11.966-3.152 3.345-3.975 3.267-8.033-.223-11.734-3.084-3.27-7.187-4.289-11.955-2.969m-646.892 59.489c-1.153.255-3.619 1.733-5.478 3.286-2.941 2.455-3.206 3.035-2.031 4.45 1.756 2.116 2.751 2.053 5.833-.372 3.588-2.823 10.521-2.724 13.234.189 4.26 4.572 1.236 11.606-5.457 12.695-7.017 1.142-7.16 6.063-.177 6.101 3.97.021 8.673 4.909 8.673 9.015 0 2.152-.928 4.082-2.923 6.077-4.138 4.137-9.691 4.078-14.512-.154-2.484-2.181-4.096-2.889-5.535-2.433-2.771.88-2.548 2.653.72 5.701 4.139 3.86 6.595 4.809 12.434 4.805 12.085-.008 19.583-11.165 13.796-20.529-1.111-1.798-2.686-3.524-3.5-3.836-2.145-.823-1.791-2.803.966-5.417 3.442-3.264 4.103-7.441 1.884-11.904-1.006-2.024-2.955-4.495-4.33-5.49-2.554-1.847-9.828-3.016-13.597-2.184m39 .05c-1.153.227-3.619 1.683-5.478 3.236-2.941 2.455-3.206 3.035-2.031 4.45 1.756 2.116 2.751 2.053 5.833-.372 3.588-2.823 10.521-2.724 13.234.189 4.335 4.652 1.377 11.583-5.414 12.688-7.052 1.147-7.229 6.07-.22 6.108 3.97.021 8.673 4.909 8.673 9.015 0 2.152-.928 4.082-2.923 6.077-4.106 4.106-9.694 4.076-14.424-.077-3.881-3.407-4.886-3.629-6.677-1.471-1.054 1.27-.863 1.965 1.127 4.095 3.634 3.891 7.257 5.376 13.097 5.372 6.261-.004 10.868-2.42 13.805-7.237 3.406-5.586 1.865-14.153-3.015-16.765-2.63-1.407-2.487-2.99.527-5.849 3.873-3.674 3.731-11.154-.292-15.401-3.651-3.854-9.39-5.326-15.822-4.058m324.511.27c-4.158 1.26-7.914 4.132-7.914 6.052 0 2.766 2.902 3.215 6.481 1.004 3.889-2.404 9.232-2.602 12.296-.455 3.33 2.332 3.103 8.606-.412 11.37-1.449 1.14-3.587 2.08-4.75 2.088-3.077.023-4.863 1.458-4.455 3.579.256 1.328 1.63 2.066 4.849 2.605 9.805 1.64 12.35 11.978 4.011 16.291-4.614 2.386-8.512 1.895-12.457-1.569-3.894-3.419-6.902-3.523-7.37-.255-.215 1.498.794 2.985 3.348 4.933 5.053 3.854 13.383 4.501 19.274 1.495 4.29-2.188 8.185-7.948 8.185-12.104 0-2.702-2.232-6.985-4.898-9.397-2.686-2.431-2.643-3.161.398-6.775 8.043-9.559-3.599-22.798-16.586-18.862m363.705.027c-3.297 1.046-7.619 4.781-7.619 6.584 0 2.253 3.199 2.473 6.481.445 4.82-2.979 10.832-2.7 13.446.623 1.14 1.449 2.073 3.44 2.073 4.423 0 2.994-4.872 7.94-7.839 7.957-3.602.021-5.432 1.341-4.996 3.605.266 1.382 1.526 2.036 4.761 2.469 12.027 1.61 11.988 16.265-.047 17.621-4.042.456-4.954.163-8.099-2.598-3.613-3.173-6.169-3.91-7.286-2.103-2.487 4.024 6.29 9.991 14.696 9.991 13.413 0 20.423-13.614 11.663-22.651-2.807-2.897-3.118-3.669-2.064-5.129 4.613-6.398 5.262-7.86 4.735-10.668-.696-3.71-2.885-7.087-5.853-9.032-2.925-1.916-10.309-2.724-14.052-1.537m39.036.43c-5.243 1.931-8.476 5.207-9.727 9.856-2.693 9.999 4.288 18.731 14.973 18.731 2.284 0 4.099.481 4.099 1.087 0 .597-2.301 4.415-5.113 8.483-4.901 7.089-5.731 10.43-2.593 10.43 1.858 0 4.575-3.185 10.095-11.835 8.155-12.78 10.04-17.068 10.04-22.849 0-3.762-.591-6.057-2.069-8.041-4.389-5.888-12.822-8.396-19.705-5.862M41.207 521.668c-1.811.893-3.743 2.464-4.293 3.492-1.606 3.002 1.552 3.401 6.43.813 3.287-1.743 5.121-2.108 7.936-1.58 9.765 1.832 8.57 14.332-1.561 16.336-5.178 1.024-5.634 3.4-.84 4.38 5.183 1.06 7.884 2.872 9.566 6.416C61.611 558.198 56.851 564 48.209 564c-3.891 0-5.329-.498-7.209-2.5-2.455-2.614-5.414-3.258-6.546-1.426-1.02 1.651 3.358 5.689 8.154 7.52 10.153 3.878 21.378-2.861 21.388-12.841.003-2.881-.805-4.643-3.496-7.621-1.925-2.131-3.5-4.245-3.5-4.698 0-.454 1.227-2.106 2.727-3.671 5.089-5.312 2.858-14.367-4.273-17.347-4.456-1.862-10.162-1.761-14.247.252m120.777.194c-2.001 1.07-3.62 2.772-3.804 4-.413 2.765 1.635 2.77 6.305.014 6.533-3.854 14.515-.75 14.515 5.644 0 4.574-3.323 8.348-8.011 9.098-3.736.597-6.238 3.132-3.722 3.771 7.527 1.911 10.293 3.376 12.039 6.381 2.264 3.893 1.693 7.322-1.801 10.816-3.461 3.461-11.159 3.418-15.323-.086-5.412-4.554-9.265-2.429-4.406 2.43 9.428 9.428 27.155 3.687 27.209-8.812.016-3.638-3.093-9.562-5.505-10.487-1.939-.745-1.902-3.532.057-4.284.845-.324 2.195-1.862 3-3.419 5.635-10.897-8.696-21.403-20.553-15.066m40.016-.067c-4.409 2.417-7.019 6.586-5.237 8.368.978.978 1.924.563 4.57-2.001 5.983-5.8 14.856-4.949 17.605 1.688 1.83 4.418-.397 7.89-13.627 21.254-9.195 9.287-11.421 12.082-11.15 14 .338 2.387.396 2.397 14.762 2.675 10.594.204 14.626-.049 15.184-.953 1.476-2.387-.338-2.826-11.666-2.826-8.563 0-11.441-.318-11.441-1.266 0-.696 4.908-6.223 10.906-12.282 9.913-10.013 10.969-11.437 11.6-15.64 1.259-8.401-3.503-13.846-12.715-14.538-3.903-.293-6.209.106-8.791 1.521m202.359.069c-3.866 2.43-4.902 3.993-3.547 5.348.718.718 2.394.382 5.429-1.087 5.244-2.538 8.513-2.686 11.6-.524 3.453 2.419 4.405 5.875 2.725 9.895-1.168 2.796-2.28 3.651-6.243 4.806-6.288 1.832-6.874 4.194-1.265 5.091 5.313.85 9.942 5.251 9.942 9.453 0 1.769-1.063 4.263-2.589 6.077-2.292 2.724-3.197 3.077-7.895 3.077-4.351 0-5.73-.447-7.661-2.483-2.484-2.618-5.286-3.246-6.405-1.436-1.077 1.742 4.612 6.859 8.912 8.016 7.92 2.133 15.466-1.044 18.791-7.913 1.835-3.791 1.96-4.864.955-8.218-.636-2.123-2.179-4.67-3.429-5.662-3.704-2.939-3.791-3.89-.659-7.167 4.304-4.504 4.169-9.869-.375-14.827-3.01-3.284-3.962-3.7-9.25-4.041-4.603-.296-6.583.053-9.036 1.595m122.141-.301c-4.052 2.095-5.876 4.02-5.059 5.341.968 1.567 4.101 1.353 5.537-.378 1.814-2.185 7.575-2.954 11.123-1.484 3.504 1.451 5.255 5.059 4.384 9.028-.802 3.649-3.273 5.709-8.035 6.699-5.191 1.078-5.177 3.387.029 4.468 8.957 1.861 12.558 10.48 6.716 16.076-3.933 3.768-11.74 3.864-15.195.187-2.455-2.614-5.414-3.258-6.546-1.426-1.02 1.651 3.358 5.689 8.154 7.52 9.791 3.74 21.403-3.18 21.388-12.745-.004-2.815-3.409-8.686-5.502-9.49-2.188-.839-1.83-3.171 1.006-6.541 4.987-5.927 2.43-14.993-5.027-17.828-3.816-1.451-9.547-1.198-12.973.573m45.355-.81l-9.644.317-.72 10.051c-.486 6.791-.368 10.402.363 11.133.607.607 3.919.979 7.548.847 7.565-.274 10.574 1.22 13.077 6.496 1.353 2.85 1.445 4.102.514 6.925-2.512 7.61-10.97 9.845-18.227 4.816-2.969-2.058-4.112-2.392-5.031-1.473-1.804 1.804.159 4.273 5.544 6.978 5.463 2.743 10.628 2.356 15.948-1.197 12.231-8.168 6.572-26.463-8.42-27.218-2.919-.147-5.666-.303-6.105-.348-.438-.044-.663-2.892-.5-6.33l.298-6.25 9.49-.5c8.007-.422 9.542-.773 9.823-2.25.184-.962-.113-1.75-.658-1.75s-1.591-.127-2.323-.282c-.733-.154-5.672-.139-10.977.035m124.542.012c-1.337.891-11.345 16.351-14.864 22.96-6.631 12.457-.043 25.288 12.967 25.255 12.263-.031 19.879-11.058 14.894-21.563-2.069-4.36-7.185-7.483-13.564-8.283l-5.059-.634 5.209-7.783c4.913-7.34 5.802-10.738 2.801-10.702-.704.009-1.777.346-2.384.75m72.126.743c-3.182 1.72-4.483 3.233-4.508 5.242-.022 1.851 2.409 1.522 6.47-.874 6.581-3.883 14.515-.548 14.515 6.1 0 4.153-3.491 7.919-8.011 8.642-3.736.597-6.238 3.132-3.722 3.771 7.527 1.911 10.293 3.376 12.039 6.381 2.264 3.893 1.693 7.322-1.801 10.816-3.461 3.461-11.159 3.418-15.323-.086-1.634-1.375-3.693-2.5-4.576-2.5-2.523 0-1.895 3.627 1.025 5.924 7.599 5.978 19.78 4.37 24.409-3.223 3.378-5.538 2.129-13.05-2.694-16.21-2.601-1.704-3.092-4.268-.972-5.081.756-.29 2.169-2.004 3.141-3.809 2.344-4.351 1.376-9.374-2.526-13.112-2.432-2.33-4.055-2.929-8.738-3.226-3.971-.252-6.673.134-8.728 1.245m33.581-.598c-.767.488-1.119 1.609-.781 2.489.509 1.327 2.407 1.601 11.087 1.601 5.759 0 10.718.399 11.02.886.464.751-3.033 8.579-15.49 34.68-2.451 5.137-2.518 7.687-.19 7.257 2.117-.391 3.451-2.968 17.913-34.628 1.835-4.018 3.337-8.406 3.337-9.75V521h-11.418c-6.28 0-12.018-.22-12.75-.489-.733-.27-1.96-.09-2.728.399m88.896-.257c-2.398.962-6 4.576-6 6.021 0 1.855 1.933 1.654 6.5-.674 5.012-2.555 8.552-2.534 11.865.073 2.01 1.581 2.635 2.962 2.635 5.825 0 4.451-2.754 7.492-7.998 8.834-5.134 1.313-5.103 3.836.056 4.661 9.041 1.446 12.817 9.886 7.019 15.684-2.455 2.455-3.727 2.923-7.949 2.923-3.974 0-5.589-.523-7.723-2.5-3.023-2.802-6.405-3.305-6.405-.952 0 2.411 4.872 6.339 9.397 7.576 8.252 2.257 17.431-2.48 19.741-10.189.899-3.002.78-4.305-.672-7.366-.971-2.045-2.823-4.412-4.115-5.259-2.688-1.761-3.071-4.097-.814-4.963 2.145-.823 4.463-5.659 4.463-9.312 0-2.083-1.075-4.237-3.355-6.725-3.038-3.315-3.913-3.69-9.25-3.96-3.242-.164-6.57-.028-7.395.303m40.418.316c-1.144.463-3.282 2.269-4.75 4.013-3.602 4.281-3.628 9.724-.067 13.956 2.424 2.881 2.693 6.062.512 6.062-.522 0-1.887 1.516-3.031 3.368-8.933 14.454 13.443 28.048 24.827 15.083C951.47 560.534 952 559.085 952 555c0-4.052-.534-5.539-3-8.347-3.251-3.703-3.808-6.129-1.601-6.976.77-.295 1.907-2.073 2.526-3.95 3.289-9.964-8.035-18.994-18.507-14.758m242.082-.069c-7.823 3.448-11.914 16.787-9.514 31.019 1.034 6.129 1.771 7.724 5.442 11.779 4.073 4.498 4.476 4.692 9.833 4.746 6.842.069 10.166-2.09 13.652-8.864 1.755-3.41 2.551-6.879 2.879-12.55.608-10.508-1.037-16.922-5.684-22.159-3.368-3.795-4.198-4.204-9.156-4.513-2.999-.187-6.352.057-7.452.542M83.153 524.974c-4.911 3.881-6.245 6.233-4.238 7.474.504.311 2.295-.595 3.98-2.013s3.523-2.295 4.085-1.948c.633.392 1.02 7.571 1.02 18.95 0 15.456.246 18.522 1.576 19.626 2.944 2.444 3.42-1.093 3.169-23.563-.239-21.488-.294-22.007-2.342-22.3-1.269-.181-4.135 1.311-7.25 3.774m370.544-.781C446.943 533.157 436 551.184 436 553.346c0 3.181 1.49 3.654 11.523 3.654 9.146 0 9.988.486 9.645 5.572-.225 3.35 1.646 5.779 3.547 4.604.631-.39 1.291-2.724 1.466-5.188.292-4.097.573-4.522 3.307-4.991 4.332-.743 4.533-3.676.327-4.763l-3.315-.857-.5-14.939-.5-14.938-2.655-.307c-2.03-.235-3.243.471-5.148 3m680.858 11.773c-7.409 11.437-9.619 15.622-9.375 17.75l.32 2.784 10 .5 10 .5.307 4.803c.204 3.197.823 5.002 1.851 5.396 2.136.82 3.483-1.613 2.88-5.199-.63-3.744.263-5.2 3.462-5.649 3.65-.512 3.45-4.242-.25-4.667-1.513-.174-2.788-.849-2.834-1.5-.046-.651-.06-6.591-.032-13.199.065-15.017-.28-16.485-3.876-16.485-2.457 0-3.819 1.638-12.453 14.966m-202.808-9.982c-6.584 5.18-2.396 15.016 6.395 15.016 3.05 0 7.864-5.335 7.826-8.673-.078-6.958-8.604-10.761-14.221-6.343m241.27.845c-3.543 3.543-5.004 8.698-5.011 17.678-.011 12.958 3.831 19.493 11.459 19.493 5.379 0 7.972-1.969 10.202-7.748 2.154-5.585 2.394-17.77.461-23.469-2.844-8.382-11.627-11.438-17.111-5.954m-122.094 1.094c-5.815 5.815-2.642 14.634 5.666 15.749 7.827 1.049 13.293-4.155 11.94-11.368-1.39-7.412-11.948-10.039-17.606-4.381m-599.275 5.327l-6.988 11.019c-2.013 3.174-3.66 6.211-3.66 6.75 0 .559 3.407.981 7.909.981h7.909l.381-10.75c.548-15.457-.17-16.491-5.551-8m685.102 5.663c-3.713 5.986-6.75 11.398-6.75 12.027 0 .786 2.429 1.053 7.75.852l7.75-.292v-11.417c0-6.732-.41-11.547-1-11.735-.55-.175-4.037 4.579-7.75 10.565m-445.331 6.163c-4.462 1.294-6.656 4.203-6.782 8.988-.091 3.463.415 4.593 3.143 7.031 3.682 3.29 7.691 3.747 12.24 1.395 3.626-1.876 4.98-4.314 4.98-8.97 0-3.81-3.523-8.52-6.373-8.52-.805 0-2.063-.184-2.795-.409-.733-.225-2.719-.006-4.413.485m238.504 2.847c-4.214 4.214-4.267 8.972-.149 13.327 2.116 2.238 3.472 2.75 7.278 2.75 5.804 0 9.615-2.711 10.509-7.473 1.777-9.475-10.686-15.555-17.638-8.604M173.276 605.25c-4.14 4.493-19.276 29.131-19.276 31.375 0 3.369 2.839 4.375 12.351 4.375 9.197 0 9.713.321 8.917 5.546-.306 2.015.073 3.492 1.121 4.362 2.712 2.251 4.472.585 4.804-4.546.287-4.44.52-4.799 3.622-5.599 4.865-1.253 3.831-4.338-2.065-6.159-1.56-.483-1.75-2.096-1.75-14.873 0-14.646-.502-16.731-4.026-16.731-.894 0-2.558 1.013-3.698 2.25m28.028-.294c-3.866 2.357-6.735 6.477-5.945 8.536.918 2.392 3.056 1.779 6.938-1.992 7.83-7.605 19.359-1.667 15.682 8.076-.607 1.608-6.475 8.174-13.041 14.591-9.112 8.906-11.938 12.275-11.938 14.231 0 3.43 1.641 3.739 18 3.39 13.139-.28 13.509-.348 13.82-2.538.362-2.552 1.079-2.427-12.977-2.257-5.311.065-9.903-.281-10.204-.768-.301-.487 4.131-5.49 9.848-11.118 14.909-14.675 16.599-20.257 8.566-28.29-3.557-3.557-4.218-3.817-9.685-3.813-4.051.002-6.858.607-9.064 1.952m121.931.024c-2.346 1.065-4.549 2.675-4.896 3.579-1.143 2.977 1.767 3.328 6.542.789 4.831-2.568 7.611-2.512 11.869.243 3.432 2.219 3.204 9.513-.385 12.336-1.449 1.14-3.587 2.08-4.75 2.088-1.163.009-2.743.413-3.511.899-2.148 1.361-.507 4.086 2.46 4.086 5.357 0 10.436 4.882 10.436 10.031 0 1.066-1.313 3.407-2.918 5.203-2.561 2.866-3.532 3.266-7.934 3.266-4.165 0-5.527-.489-8.023-2.88-1.826-1.75-3.617-2.645-4.565-2.281-2.562.983-1.785 3.388 2.038 6.303 2.707 2.065 4.997 2.836 9.25 3.112 7.563.492 11.86-1.817 15.003-8.062 2.026-4.024 2.195-5.122 1.221-7.914-.621-1.784-2.533-4.69-4.249-6.46l-3.118-3.218 3.147-3.585c7.245-8.251.642-19.586-11.352-19.487-1.1.009-3.919.887-6.265 1.952m214.015-.227c-.962.964-5.687 7.861-10.5 15.326-10.072 15.625-11.099 19.432-5.5 20.381 1.788.303 6.4.661 10.25.796l7 .244.307 4.803c.524 8.204 6.193 7.357 6.193-.925 0-3.557.339-4.378 1.809-4.378.995 0 2.665-.626 3.712-1.392 1.617-1.182 1.703-1.633.569-3-.734-.884-2.405-1.608-3.712-1.608H545v-14.429c0-11.783-.288-14.716-1.571-16-2.047-2.046-4.012-1.988-6.179.182m25.405-.49c-1.488 1.088-1.688 2.786-1.441 12.25l.286 10.987 7.137-.347c7.925-.385 11.176.946 13.209 5.408 3.252 7.139-1.63 14.439-9.657 14.439-1.6 0-4.568-1.125-6.594-2.5-4.345-2.949-6.132-3.139-7.062-.75-.97 2.494 5.803 8.217 9.884 8.351 7.13.235 10.26-.411 13.354-2.756 7.058-5.349 8.804-12.038 5.041-19.322-2.83-5.48-7.308-8.217-14.036-8.58-2.779-.149-5.349-.752-5.712-1.339-.363-.588-.413-3.214-.112-5.836l.548-4.768 8.704-.5c9.291-.534 12.05-1.784 9.831-4.458-1.664-2.005-20.708-2.233-23.38-.279m337.496 1.6c-4.223 4.561-19.151 28.694-19.151 30.96 0 3.075 1.592 3.629 12 4.177l9.5.5.5 5c.417 4.167.833 5 2.5 5 1.663 0 2.084-.833 2.5-4.942.464-4.582.736-5.003 3.75-5.778 2.264-.583 3.25-1.426 3.25-2.78 0-1.353-.987-2.198-3.25-2.784l-3.25-.841-.279-14.369c-.165-8.514-.724-14.907-1.372-15.688-1.706-2.056-3.814-1.569-6.698 1.545m29.039-.896c-6.129 3.845-7.841 13.324-3.17 17.551 2.596 2.35 2.498 3.647-.491 6.455-6.945 6.524-4.85 17.256 4.289 21.973 3.417 1.764 12.631 1.493 15.953-.47 4.336-2.561 7.229-7.477 7.229-12.285 0-3.401-.675-4.932-3.602-8.172l-3.602-3.988 2.602-3.092c3.95-4.695 3.655-10.819-.753-15.629-3.01-3.284-3.962-3.7-9.25-4.041-4.686-.301-6.574.047-9.205 1.698m124.752-1.063c-4.664 1.495-6.74 3.033-8.974 6.647-1.753 2.838-2.112 4.603-1.733 8.546.758 7.887 6.672 12.903 15.215 12.903 2.503 0 4.55.461 4.55 1.023 0 .563-2.25 4.293-5 8.288-5.476 7.956-6.014 9.689-3.006 9.689 1.923 0 7.46-7.677 15.371-21.312 5.441-9.377 4.152-19.695-2.983-23.887-3.551-2.086-10.007-2.997-13.44-1.897m119.558.664c-4.997 2.535-8.208 7.772-9.514 15.517-2.225 13.19.961 25.016 8.014 29.746 2.898 1.944 4.437 2.272 8.952 1.909 4.895-.393 5.829-.862 9.13-4.582 10.062-11.339 7.164-37.815-4.682-42.764-4.288-1.792-8.137-1.736-11.9.174m-1120.635.644c-1.666 1.324-18.237 26.988-19.425 30.084-1.351 3.52 1.287 4.704 10.482 4.704 5.416 0 9.129.451 9.878 1.2.66.66 1.2 3.135 1.2 5.5 0 3.633.31 4.3 2 4.3 1.695 0 2-.667 2-4.378 0-4.529 1.07-6.141 4.5-6.778 2.688-.499 2.554-3.265-.177-3.654-1.198-.171-2.648-.876-3.222-1.568-.587-.708-1.166-7.569-1.322-15.69-.263-13.579-.398-14.449-2.286-14.72-1.104-.158-2.737.292-3.628 1m30.798 2.843c-3.553 2.544-5.663 4.78-5.663 6 0 2.485 1.52 2.468 4.727-.055 5.075-3.992 5.208-3.577 5.501 17.25.261 18.493.351 19.25 2.272 19.25 1.931 0 2.009-.757 2.27-21.874.259-20.975-.146-24.626-2.73-24.626-.393 0-3.263 1.825-6.377 4.055m209.991-.805c-1.347 1.788-5.898 8.559-10.113 15.047-5.642 8.684-7.582 12.511-7.353 14.5.311 2.698.332 2.704 10.312 3.203l10 .5.5 5c.417 4.167.833 5 2.5 5 1.666 0 2.083-.833 2.5-4.995.463-4.623.723-5.034 3.5-5.51 1.751-.3 3-1.131 3-1.995 0-.863-1.251-1.697-3-1.999l-3-.518-.279-14.424c-.165-8.552-.723-14.959-1.372-15.741-1.845-2.223-4.628-1.476-7.195 1.932m122.116-1.5c-.847.962-5.428 7.825-10.18 15.25-5.973 9.335-8.554 14.271-8.365 16 .269 2.443.501 2.511 10.275 3l10 .5.5 5c.417 4.167.833 5 2.5 5 1.666 0 2.083-.833 2.5-4.995.463-4.623.723-5.034 3.5-5.51 1.751-.3 3-1.131 3-1.995 0-.863-1.251-1.697-3-1.999l-3-.518-.244-13.491c-.134-7.421-.48-14.505-.769-15.742-.646-2.768-4.471-3.053-6.717-.5m30.166 13.5c-7.022 10.732-9.897 15.991-9.707 17.75.265 2.449.466 2.506 9.762 2.791 5.22.16 9.929.729 10.464 1.264.535.535.99 2.88 1.009 5.209.03 3.557.356 4.236 2.036 4.236 1.666 0 2.083-.833 2.5-4.995.463-4.623.723-5.034 3.5-5.51 3.987-.684 3.841-3.15-.25-4.21l-3.25-.842v-14.272c0-9.766-.379-14.65-1.2-15.471-2.991-2.991-4.888-1.197-14.864 14.05m213.434-14.506c-1.493.999-19.133 27.933-19.922 30.418-1.187 3.742 1.187 4.838 10.474 4.838 5.416 0 9.129.451 9.878 1.2.66.66 1.2 3.135 1.2 5.5 0 3.633.31 4.3 2 4.3 2.019 0 2.368-1.035 2.048-6.08-.177-2.798 1.309-4.493 4.452-5.076 2.688-.499 2.554-3.265-.177-3.654-1.198-.171-2.648-.876-3.222-1.568-.587-.708-1.166-7.569-1.322-15.69-.262-13.573-.398-14.447-2.279-14.688-1.1-.14-2.508.085-3.13.5m34.542 3.506c-1.706 2.337-5.606 8.491-8.668 13.675-4.9 8.296-5.575 10.094-5.642 15.012-.058 4.252.454 6.333 2.141 8.702 5.87 8.244 18.792 8.456 25.554.42 2.2-2.614 2.703-4.208 2.703-8.559 0-4.351-.503-5.945-2.703-8.559A16.652 16.652 0 0 0 694.532 623c-2.175 0-3.532-.484-3.532-1.261 0-.693 2.025-4.279 4.5-7.968 2.475-3.69 4.5-7.397 4.5-8.24 0-2.871-2.981-1.54-6.088 2.719m85.378-2c-2.348 2.567-17.645 26.396-18.554 28.903-1.307 3.607 1.305 4.783 11.264 5.071l9.5.276.304 5.312c.277 4.825.507 5.284 2.5 5 1.833-.26 2.214-.992 2.305-4.43.138-5.199.884-6.382 4.023-6.382 1.85 0 2.426-.459 2.18-1.739-.184-.956-1.23-1.899-2.323-2.097-1.094-.197-2.374-.722-2.844-1.166-.47-.444-.788-6.693-.706-13.887.088-7.743-.292-13.901-.93-15.095-1.42-2.653-4.165-2.557-6.719.234m22.228-1.278c-1.442 2.333 1.068 3.028 10.934 3.028 7.352 0 10.468.361 10.8 1.25.256.688-3.695 10.113-8.781 20.945s-8.998 19.945-8.693 20.25c1.693 1.693 4.056.078 6.142-4.195 8.634-17.686 17.164-37.638 16.897-39.519-.307-2.163-.721-2.24-13.49-2.509-8.249-.175-13.411.105-13.809.75m220.841 1.236c-2.317 2.569-18.037 26.79-18.978 29.241-1.291 3.364 1.459 4.551 10.541 4.551 5.416 0 9.129.451 9.878 1.2.66.66 1.2 3.135 1.2 5.5 0 3.633.31 4.3 2 4.3 1.695 0 2-.667 2-4.378 0-4.529 1.07-6.141 4.5-6.778 2.688-.499 2.554-3.265-.177-3.654-1.198-.171-2.648-.876-3.222-1.568-.587-.708-1.166-7.569-1.322-15.69-.264-13.65-.389-14.448-2.316-14.724-1.142-.163-2.944.715-4.104 2m107.726-.81c-.754.908-1.059 4.844-.872 11.25l.287 9.852h7.173c8.306 0 12.204 2.09 13.713 7.352 2.886 10.061-8.733 17.704-17.292 11.375-3.71-2.743-6.094-2.858-6.094-.295 0 2.469 4.972 6.027 9.435 6.751 5.904.958 10.372-.49 14.621-4.739 3.658-3.658 3.944-4.352 3.944-9.576 0-10.032-5.537-15.368-15.947-15.368h-5.144l.295-6.75.296-6.75 9.5-.5c5.225-.275 9.388-.837 9.25-1.25-.138-.413-.25-1.2-.25-1.75 0-1.662-21.516-1.288-22.915.398m-74.543 2.322c-3.858.998-6.546 3.563-7.671 7.315-.984 3.285-.873 4.277.798 7.138 2.551 4.368 5.856 6.006 11.08 5.491 5.022-.494 7.065-1.977 8.955-6.5 3.181-7.61-4.679-15.64-13.162-13.444m120.246.43c-4.705 1.72-7.136 7.095-7.597 16.794-.465 9.773.833 15.81 4.257 19.79 1.944 2.26 3.203 2.766 6.885 2.766 8.351 0 12.081-6.175 12.082-20 .001-10.403-2.664-16.87-7.842-19.034-3.982-1.664-4.089-1.668-7.785-.316m-244.333 2.305c-7.494 7.493 3.792 17.799 11.795 10.772 1.086-.954 1.75-2.969 1.75-5.309 0-7.107-8.481-10.527-13.545-5.463m-879.062 1.361c-.557.376-3.211 4.284-5.899 8.684-2.688 4.4-5.674 9.041-6.635 10.314-2.952 3.909-1.462 5.186 6.048 5.186 3.872 0 7.199-.506 7.893-1.2 1.362-1.362 1.726-22.357.402-23.175-.439-.271-1.253-.185-1.809.191m239.255 4.434l-7.05 11.117c-4.989 7.863-4.476 8.796 4.638 8.427l7.264-.294.281-12.25c.184-8.018-.08-12.25-.763-12.25-.573 0-2.54 2.362-4.37 5.25m124.203-4.01c-.858.693-3.269 4.185-5.359 7.76-2.089 3.575-4.895 7.985-6.234 9.799-3.793 5.139-2.593 6.342 5.978 5.995l7.264-.294.567-11c.626-12.172.25-14.254-2.216-12.26m39.398-.394c-.659.408-3.502 4.546-6.318 9.197-2.815 4.652-5.806 9.228-6.646 10.17-.84.942-1.262 2.404-.938 3.25.772 2.011 14.443 2.248 15.204.264.714-1.86 1.109-21.659.454-22.72-.307-.496-1.097-.568-1.756-.161m202.515.928c-3.304 3.793-13.388 20.853-13.006 22.001.546 1.637 13.409 1.658 15.042.025 1.404-1.404 1.706-22.369.334-23.217-.477-.295-1.543.241-2.37 1.191m120.729.476c-5.293 7.445-12.518 20.244-12.076 21.395.357.93 2.386 1.355 6.47 1.355 9.455 0 9.113.492 9.113-13.107 0-6.874-.402-11.893-.953-11.893-.525 0-1.674 1.013-2.554 2.25m243.577-.834c-3.369 4.059-13.647 21.353-13.304 22.383.538 1.614 13.42 1.615 15.034.001 1.417-1.417 1.7-22.373.313-23.23-.487-.301-1.407.079-2.043.846m-123.654 3.719a2308.18 2308.18 0 0 1-7.095 11.142c-4.981 7.774-4.851 7.979 4.784 7.524l6.395-.301.287-10.413c.158-5.727-.142-10.842-.665-11.365-.602-.602-1.963.651-3.706 3.413m-731.722 7.09c-3.594 5.624-6.318 10.574-6.055 11 .702 1.136 14.135.948 14.528-.203.682-2.002-.331-21.022-1.12-21.022-.451 0-3.76 4.601-7.353 10.225m363.806-.446c-3.3 5.339-6.149 10.294-6.332 11.01-.255 1 1.366 1.234 7 1.006l7.332-.295.284-10.75c.218-8.246-.015-10.742-1-10.714-.706.02-3.984 4.404-7.284 9.743m158.883 5.804c-5.961 2.941-7.164 10.393-2.517 15.594 2.519 2.818 3.487 3.208 7.981 3.208 3.994 0 5.664-.516 7.619-2.353 4.997-4.694 4.179-12.449-1.691-16.028-3.906-2.381-7.173-2.502-11.392-.421m242.637 1.701c-5.447 2.756-6.461 9.428-2.097 13.793 2.388 2.388 3.77 2.923 7.546 2.923 6.133 0 9.531-3.161 9.531-8.866 0-7.121-8.066-11.348-14.98-7.85m241.326 59.646c-7.887 3.581-12.15 16.014-10.235 29.851 1.057 7.632 2.679 10.95 7.373 15.071 3.002 2.636 4.402 3.148 8.6 3.148 2.759 0 6.23-.631 7.716-1.403 14.089-7.317 13.086-41.151-1.4-47.203-4.422-1.848-7.062-1.731-12.054.536M38.2 690.2c-.787.787-1.2 4.959-1.2 12.116v10.917l6.414-.687c4.909-.526 7.123-.32 9.439.878 7.124 3.684 8.247 10.676 2.619 16.304-3.176 3.176-3.934 3.473-7.598 2.982-2.239-.3-5.068-1.483-6.287-2.628-2.612-2.454-4.865-2.657-6.58-.591-1.022 1.232-.684 2.009 1.949 4.468 7.149 6.678 19.178 5.1 25.482-3.344 2.872-3.846 2.856-12.397-.03-16.292C58.693 709.31 54.26 707 48.352 707H43v-5.378c0-3.39.518-5.807 1.401-6.54.836-.694 4.413-1.092 8.88-.989 4.113.096 7.983-.138 8.599-.519 1.632-1.009 1.37-3.264-.462-3.967-2.996-1.15-21.959-.666-23.218.593m44.91 3.298c-3.948 2.906-6.11 5.206-6.11 6.5 0 2.707 3.682 2.65 6.612-.103 4.064-3.818 4.543-1.963 4.379 16.958-.084 9.706-.116 18.21-.072 18.897.045.688 1.197 1.25 2.562 1.25 1.756 0 2.65-.673 3.059-2.303.318-1.266.439-11.634.269-23.038-.255-17.107-.571-20.901-1.809-21.682-2.2-1.388-2.247-1.369-8.89 3.521m121.148-3.845c-2.992.646-8.258 6.017-8.258 8.424 0 2.533 2.216 2.447 4.593-.179 2.415-2.669 6.696-4.898 9.407-4.898 3.48 0 7.643 2.725 8.938 5.85 1.83 4.418-.397 7.89-13.627 21.254-9.195 9.287-11.421 12.082-11.15 14l.339 2.396h15c12.667 0 15-.233 15-1.5 0-1.232-2.097-1.55-11.75-1.782-8.501-.204-11.75-.623-11.75-1.516 0-.678 4.908-6.191 10.906-12.25 9.913-10.013 10.969-11.437 11.6-15.64.808-5.392-.63-9.114-4.682-12.112-2.67-1.975-10.073-3.016-14.566-2.047m119.763.403c-3.287 1.391-6.021 3.933-6.021 5.599 0 1.874 1.919 1.68 6.5-.655 5.012-2.555 8.552-2.534 11.865.073 5.266 4.141 2.77 12.98-4.09 14.485-4.741 1.04-5.275 1.334-5.275 2.899 0 1.015 1.412 1.744 4.25 2.197 8.148 1.299 12.198 8.964 7.734 14.639-4.239 5.389-12.23 5.643-17.64.56-2.378-2.234-5.344-1.93-5.344.548 0 1.842 4.989 5.445 9.254 6.683 11.618 3.372 23.565-7.232 19.363-17.188-.837-1.982-2.668-4.355-4.069-5.273-3.281-2.149-3.209-3.203.452-6.623 4.324-4.04 4.227-9.694-.25-14.566-2.801-3.047-4.01-3.598-8.75-3.982-3.025-.245-6.616.027-7.979.604m78.238.194c-1.281 1.624-2.423 19.866-1.352 21.599.609.986 2.226 1.153 6.269.648 7.473-.933 12.353 1.133 14.433 6.109.845 2.023 1.289 4.666.985 5.874-.96 3.827-4.54 7.419-8.05 8.078-4.008.752-6.506.077-9.578-2.588-4.47-3.876-9.184-1.078-5.34 3.17 2.944 3.252 6.888 4.86 11.923 4.86 9.666 0 16.451-6.303 16.451-15.282 0-9.402-5.399-14.876-15.5-15.718l-6-.5.36-5.5c.198-3.025.873-5.841 1.5-6.258.627-.417 4.66-.668 8.962-.558 8.131.208 10.866-1.048 8.498-3.9-1.473-1.776-22.164-1.806-23.561-.034m53.948-.573c-.711.285-4.331 5.087-8.044 10.671-12.523 18.832-13.425 20.47-12.751 23.157.606 2.417.895 2.495 9.173 2.495 11.006 0 12.415.749 12.415 6.602 0 4.353.108 4.518 2.75 4.214 2.509-.288 2.776-.724 3.051-4.97.266-4.11.616-4.734 2.99-5.33 1.479-.371 3.005-1.186 3.392-1.812 1.029-1.665-1.066-3.704-3.805-3.704-1.578 0-2.396-.589-2.43-1.75-.029-.962-.008-7.434.047-14.381.083-10.399-.186-12.917-1.519-14.25-1.644-1.644-2.942-1.876-5.269-.942m309.793.3c-1.182.746-1.5 3.232-1.5 11.735V712.5h7.829c7.576 0 7.922.105 10.75 3.266 4.829 5.399 3.545 12.891-2.763 16.117-3.427 1.752-6.728 1.327-10.721-1.383-3.93-2.667-6.093-3.121-7.101-1.491-2.282 3.693 5.522 8.991 13.244 8.991 12.237 0 20.47-13.521 14.012-23.01-3.575-5.253-7.26-7.421-13.564-7.983l-5.686-.507-.3-5.188c-.377-6.521 1.029-7.454 10.86-7.206 7.279.184 9.657-.794 8.604-3.539-.495-1.29-2.507-1.564-11.383-1.552-5.929.009-11.456.442-12.281.962m34.965.565c-2.426 2.923.36 3.835 10.917 3.574 6.465-.16 10.16.143 10.609.87.379.613-.096 2.779-1.055 4.814a7687.004 7687.004 0 0 1-9.09 19.095c-4.04 8.468-7.346 15.957-7.346 16.643 0 1.735 2.993 2.712 4.493 1.468 1.793-1.488 20.507-42.327 20.507-44.752 0-2.905-1.66-3.254-15.459-3.254-9.86 0-12.55.306-13.576 1.542m131.333-.893c-1.211.263-3.574 2.04-5.25 3.949-3.963 4.514-4.171 9.914-.548 14.22 2.974 3.534 3.095 4.637.7 6.375-3.152 2.288-5.2 6.143-5.196 9.78.013 12.848 18.072 18.539 26.905 8.478 2.576-2.934 3.091-4.356 3.091-8.535 0-4.383-.443-5.472-3.515-8.635l-3.516-3.619 1.996-2.124c4.941-5.26 4.419-13.708-1.101-17.802-2.629-1.951-9.393-2.991-13.566-2.087m120.345.323c-5.701 1.82-9.643 7.351-9.643 13.528 0 7.926 5.909 13.7 14.323 13.996 2.788.098 5.213.611 5.389 1.14.176.528-1.937 4.238-4.696 8.242-5.037 7.312-6.089 10.135-3.766 10.107 2.236-.028 3.412-1.354 9.272-10.456 7.553-11.734 10.457-18.124 10.464-23.029.007-4.499-2.68-9.598-6.312-11.978-2.964-1.942-11.156-2.786-15.031-1.55m88.508 1.91c-1.458 1.584-5.481 7.626-8.939 13.424-4.608 7.726-6.444 11.858-6.871 15.463-.706 5.964 1.457 11.239 5.91 14.41 3.176 2.261 10.911 3.499 15.176 2.429 4.319-1.084 9.197-6.195 10.56-11.063 1.151-4.111 1.059-4.878-1.116-9.264-2.668-5.38-8.798-9.281-14.583-9.281-1.808 0-3.288-.437-3.288-.97 0-.534 2.287-4.342 5.083-8.462 2.795-4.12 4.794-7.958 4.441-8.53-1.137-1.839-3.654-1.111-6.373 1.844m-981.721-.561c-.279.727-.377 5.789-.218 11.25l.288 9.929 6.655-.336c7.619-.385 10.132.619 12.895 5.15 2.926 4.798 2.509 8.327-1.45 12.286-4.387 4.387-10.394 4.741-15.575.918-2.457-1.812-3.707-2.197-4.635-1.427-3.521 2.922 4.55 8.374 12.231 8.263 9.374-.135 15.379-5.95 15.379-14.89 0-8.861-6.047-14.812-15-14.762-5.745.032-7-1.023-7-5.89 0-7.103.945-7.812 10.413-7.812 5.759 0 8.687-.416 9.456-1.342.612-.738.818-1.638.456-2-.362-.362-5.772-.658-12.023-.658-8.496 0-11.493.334-11.872 1.321m121.177.261c-.334.87-.607 5.82-.607 11 0 6.826.344 9.44 1.25 9.497.688.043 4.076.012 7.53-.07 5.92-.14 6.479.05 9.75 3.321 3.738 3.738 4.445 7.436 2.316 12.109-2.605 5.718-11.859 7.776-16.281 3.622-2.84-2.668-6.565-2.749-6.565-.143 0 3.172 6.572 6.524 12.621 6.436 12.09-.174 19.386-11.156 14.173-21.331-2.91-5.679-7.503-8.424-13.933-8.327-2.645.039-5.2-.438-5.679-1.062-.478-.624-.602-3.609-.276-6.634l.594-5.5 8.45-.294c8.088-.281 11.659-1.412 10.48-3.319-.301-.488-5.648-.887-11.882-.887-9.413 0-11.437.268-11.941 1.582m243.082-.832c-.236.413-.736 5.096-1.112 10.408-.509 7.177-.369 9.853.544 10.417.676.417 3.822.653 6.992.524 9.222-.377 13.826 3.186 13.865 10.728.046 8.935-9.644 13.507-17.188 8.111-3.169-2.267-6.79-2.548-6.79-.527 0 2.194 5.473 6.267 9.414 7.007 13.416 2.517 24.529-11.86 17.336-22.428-3.538-5.198-6.823-7.105-12.838-7.45-2.977-.171-5.749-.362-6.162-.425-1.239-.19-.845-10.62.45-11.915.712-.712 4.137-1.2 8.418-1.2 8.095 0 10.382-.574 10.382-2.607 0-1.109-2.328-1.393-11.441-1.393-6.293 0-11.634.337-11.87.75m38.974 0c-.844 1.393-1.884 17.979-1.251 19.972.568 1.789 1.314 1.931 7.911 1.508 7.073-.454 7.375-.378 10.362 2.609 3.899 3.899 4.735 7.219 2.915 11.575-2.899 6.939-10.812 8.889-17.31 4.266-6.346-4.515-8.867-.747-2.665 3.983 2.879 2.196 4.69 2.766 8.791 2.766 9.143 0 15.512-5.507 16.313-14.105.362-3.892-.003-5.482-1.89-8.232-3.645-5.311-6.887-7.205-12.927-7.552-2.977-.171-5.749-.362-6.162-.425-1.32-.202-.832-10.802.55-11.949.715-.593 5.097-1.211 9.739-1.372 7.104-.248 8.492-.571 8.773-2.044.303-1.585-.753-1.75-11.18-1.75-6.333 0-11.719.337-11.969.75m81.767.571c-.279.727-.377 5.789-.218 11.25l.288 9.929 6.72-.34c5.607-.283 7.218.015 9.725 1.801 3.996 2.845 5.821 8.692 3.923 12.566-3.183 6.498-11.359 8.704-16.947 4.573-2.604-1.925-6.921-2.882-6.921-1.534 0 2.098 2.823 4.91 6.61 6.586 11.356 5.023 23.512-3.508 22.154-15.55-.874-7.753-6.354-12.629-14.557-12.951-2.589-.101-5.269-.541-5.957-.977-1.669-1.057-1.629-10.114.05-11.508.715-.593 5.097-1.211 9.739-1.372 7.104-.248 8.492-.571 8.773-2.044.303-1.585-.757-1.75-11.27-1.75-8.695 0-11.732.331-12.112 1.321m44.152 10.873c-10.841 17.372-11.861 23.265-5.272 30.44 6.052 6.59 16.723 6.533 23.38-.124 2.923-2.923 3.31-3.935 3.306-8.66-.006-9.26-5.614-14.85-14.897-14.85-5.391 0-5.33-1.46.401-9.659 4.892-6.997 5.543-9.341 2.596-9.341-1.353 0-4.11 3.535-9.514 12.194m197.893-9.944c-.31 1.237-.431 6.299-.269 11.248l.294 8.997 7.26-.338c7.142-.332 7.316-.281 10.75 3.153 4.751 4.751 4.903 10.123.413 14.613-1.692 1.692-4.055 3.127-5.25 3.188-4.704.239-7.26-.369-9.237-2.2-2.745-2.541-6.436-2.536-6.436.007 0 3.172 6.572 6.524 12.621 6.436 6.977-.1 11.997-3.235 14.598-9.116 4.555-10.298-2.645-20.4-14.711-20.639l-5.008-.099v-13l8.45-.294c8.088-.281 11.659-1.412 10.48-3.319-.301-.488-5.688-.887-11.97-.887-11.011 0-11.442.081-11.985 2.25m121.955-.929c-.279.727-.377 5.788-.218 11.247l.288 9.926 7.139-.331c6.696-.312 7.343-.151 10.401 2.581 2.733 2.442 3.276 3.652 3.36 7.479.113 5.182-1.938 8.222-6.992 10.363-3.5 1.482-6.692.957-10.562-1.738-5.209-3.626-8.689-1.46-4.255 2.649 6.42 5.95 16.364 5.334 22.659-1.405 3.332-3.567 3.75-4.591 3.75-9.185 0-9.368-5.472-14.904-15.074-15.251-2.665-.097-5.282-.621-5.817-1.166-.565-.576-.686-3.289-.29-6.49l.681-5.5 8.99-.5c7.53-.419 9.044-.784 9.323-2.25.302-1.585-.759-1.75-11.271-1.75-8.695 0-11.732.331-12.112 1.321m-76.594 3.934c-3.551 2.993-4.285 5.976-2.377 9.665 3.023 5.847 8.984 6.791 13.618 2.157 4.478-4.478 3.726-9.991-1.761-12.914-3.314-1.765-6.53-1.394-9.48 1.092m120.517-.329c-10.908 6.652-1.833 22.525 10.282 17.984 8.085-3.03 9.263-13.562 2.012-17.984-1.731-1.055-4.497-1.919-6.147-1.919-1.65 0-4.416.864-6.147 1.919m123.514-.107c-4.904 2.449-7.183 7.812-7.265 17.105-.091 10.174.913 14.345 4.331 18.004 4.863 5.206 12.103 3.77 15.659-3.105 2.165-4.187 2.956-16.369 1.467-22.578-1.998-8.33-8.174-12.431-14.192-9.426m-727.77 14.103c-3.353 5.457-6.097 10.426-6.097 11.043 0 .754 2.383 1.026 7.25.829l7.25-.294.284-10.75c.232-8.81.024-10.75-1.153-10.75-.79 0-4.181 4.465-7.534 9.922m240.678 5.637c-3.394 1.842-4.775 4.345-4.775 8.653 0 6.927 6.787 11.73 13.878 9.821 5.39-1.452 7.622-4.298 7.622-9.72 0-3.793-.499-4.923-3.266-7.395-3.717-3.321-8.882-3.843-13.459-1.359m448.514-.233c-4.241 1.551-6.218 4.353-6.257 8.868-.085 9.901 14.176 13.496 19.277 4.859.93-1.574 1.691-3.602 1.691-4.507 0-3.269-3.194-7.729-6.534-9.125-3.935-1.644-3.94-1.644-8.177-.095M932 715.279c-3.133 1.565-5.881 6.891-5.253 10.179 1.14 5.96 8.642 9.66 14.565 7.184 4.131-1.726 5.652-3.645 6.363-8.026.506-3.118.138-4.003-2.948-7.089-3.848-3.848-8.043-4.589-12.727-2.248m-727.396 57.716c-3.695 1.161-8.604 5.836-8.604 8.192 0 2.684 3.658 2.265 5.559-.636.883-1.348 3.146-2.958 5.029-3.58 2.854-.942 4.047-.826 7.168.699 5.058 2.472 6.771 6.133 4.93 10.539-.758 1.815-6.623 8.461-13.032 14.769-9.097 8.953-11.654 12.055-11.654 14.139 0 1.511.686 2.932 1.582 3.276.87.334 7.34.607 14.377.607 9.397 0 13.088-.352 13.895-1.324 2.252-2.714-.902-3.676-12.054-3.676-6.886 0-10.8-.381-10.8-1.052 0-.578 4.685-5.64 10.411-11.25 12.107-11.859 14.059-15.752 11.526-22.995-2.226-6.364-10.946-10.03-18.333-7.708m117.603.673c-3.485 1.718-5.703 4.72-4.694 6.353.922 1.492 3.115 1.182 7.226-1.021 5.022-2.692 8.806-2.546 11.806.455 4.793 4.792 1.673 12.007-5.703 13.186-2.207.353-4.273 1.318-4.59 2.145-.763 1.988 2.399 4.214 5.985 4.214 4.109 0 7.763 4.001 7.763 8.5 0 5.409-3.556 8.5-9.78 8.5-3.903 0-5.338-.497-7.22-2.5-2.403-2.558-6.372-3.325-7.527-1.456-.355.574.073 2.14.95 3.479 5.795 8.844 24.185 7.446 28.192-2.143 2.533-6.064 1.623-10.219-3.424-15.63l-2.565-2.75 2.854-2.979c3.398-3.547 3.908-9.972 1.128-14.216-3.575-5.457-13.598-7.489-20.401-4.137m334.89.132c-3.319 2.82-15.031 22.239-16.601 27.526-3.368 11.341 3.471 20.053 15.65 19.939 4.828-.046 6.538-.55 9.479-2.792 11.439-8.725 5.868-26.457-8.316-26.469-2.305-.002-4.419-.373-4.698-.824-.278-.45 1.719-4.163 4.439-8.25 2.72-4.086 4.946-7.944 4.947-8.573.005-1.997-2.826-2.319-4.9-.557m40.046-1.034c-1.588.552-13.524 18.661-16.237 24.633-5.131 11.299.329 22.932 11.13 23.711 7.456.537 9.673-.08 13.877-3.86 3.586-3.224 4.244-4.451 4.688-8.75.943-9.124-5.4-16.5-14.19-16.5-2.361 0-4.521-.369-4.8-.82-.278-.45 1.719-4.163 4.439-8.25 2.72-4.086 4.946-7.944 4.947-8.573.004-1.397-2.015-2.23-3.854-1.591m236.357-.048c-1.1.267-3.444 1.573-5.208 2.903-5.086 3.831-5.689 11.309-1.319 16.348 2.524 2.91 2.519 3.275-.075 5.624-9.9 8.959-3.305 23.407 10.684 23.407 8.755 0 14.418-5.466 14.418-13.917 0-4.394-.42-5.395-3.533-8.418l-3.534-3.432 2.7-3.209c5.677-6.746 2.283-16.564-6.576-19.025-3.744-1.04-4.342-1.062-7.557-.281m88.689.033c-1.409.491-9.942 13.316-14.748 22.166-2.39 4.404-2.941 6.624-2.941 11.865 0 6.322.082 6.519 4.231 10.202 7.113 6.312 16.581 6.171 23.096-.344 2.943-2.943 3.559-4.34 3.89-8.818.305-4.114-.07-6.062-1.652-8.581-2.816-4.484-7.683-7.233-12.815-7.237-5.487-.005-5.458-1.114.25-9.451 2.475-3.615 4.5-7.195 4.5-7.956 0-1.592-1.899-2.512-3.811-1.846m27.811 1.347c-5.397 3.163-7.395 6.522-7.451 12.531-.079 8.37 5.542 14.289 14.377 15.138 2.79.268 5.074.8 5.074 1.182 0 .382-2.272 3.993-5.049 8.024-5.137 7.457-5.639 10.027-1.96 10.027 2.064 0 8.353-8.78 16.021-22.367 5.835-10.34 4.478-18.612-4.002-24.383-4.353-2.963-12.097-3.032-17.01-.152m125.5-1.292c-8.566 2.971-13.558 14.884-12.024 28.694 1.427 12.842 7.074 19.5 16.54 19.5 4.987 0 5.595-.28 9.528-4.385 5.193-5.419 6.891-11.548 6.252-22.572-.504-8.708-3.541-16.194-7.796-19.213-2.811-1.995-9.472-3.074-12.5-2.024M48.928 777.25c-5.996 8.261-12.851 20.432-14.066 24.975-1.788 6.685-.018 11.925 5.337 15.804 11.686 8.465 28.05-1.563 24.525-15.029-1.704-6.511-7.903-11-15.192-11-4.709 0-4.561-1.433.968-9.341 2.475-3.541 4.5-7.163 4.5-8.048 0-2.946-2.948-1.665-6.072 2.639m34.572-.118c-2.75 2.233-5.362 4.697-5.805 5.474-1.375 2.414 2.033 2.753 4.91.49 5.213-4.1 5.329-3.748 5.623 17.154.261 18.493.351 19.25 2.272 19.25 1.928 0 2.01-.761 2.283-21 .156-11.55.035-22.013-.269-23.25-.801-3.265-3.325-2.738-9.014 1.882m88.331-2.382c-2.744 3.246-11.959 18.328-14.395 23.559-2.936 6.306-3.043 9.581-.479 14.607 5.654 11.082 23.22 10.72 28.219-.582 2.45-5.538 1.865-9.944-1.919-14.441-3.138-3.729-7.811-5.893-12.725-5.893-2.16 0-3.531-.485-3.529-1.25.001-.687 2.227-4.594 4.947-8.68 2.72-4.087 4.717-7.8 4.439-8.25-.843-1.363-2.99-.925-4.558.93m114.814 8.559c-3.614 5.67-7.478 12.308-8.586 14.75-3.783 8.338-2.235 15.417 4.495 20.55 2.963 2.26 4.534 2.703 9.418 2.657 10.072-.095 16.195-5.735 16.195-14.919 0-7.802-6.758-14.347-14.815-14.347-2.835 0-4.352-.44-4.352-1.261 0-.693 2.025-4.279 4.5-7.968 5.13-7.648 5.589-9.771 2.109-9.771-1.943 0-3.626 1.936-8.964 10.309m121.086 1.441c-4.077 6.462-7.934 13.28-8.572 15.149-3.865 11.333 2.814 21.089 14.443 21.097 15.761.012 21.177-19.662 7.362-26.746-2.413-1.237-6.092-2.25-8.176-2.25-2.083 0-3.787-.337-3.785-.75.001-.413 2.25-4.125 4.997-8.25 5.446-8.178 6.006-10 3.072-10-1.375 0-4.058 3.374-9.341 11.75m38.205 3.5c-7.022 10.732-9.897 15.991-9.707 17.75.265 2.449.466 2.506 9.762 2.791 5.22.16 9.929.729 10.464 1.264.535.535.99 2.88 1.009 5.209.031 3.619.364 4.283 2.286 4.556 2.078.295 2.25-.066 2.25-4.722 0-4.848.125-5.073 3.25-5.883 1.788-.463 3.25-1.46 3.25-2.215 0-.755-1.462-1.752-3.25-2.215l-3.25-.842v-14.272c0-9.766-.379-14.65-1.2-15.471-2.991-2.991-4.888-1.197-14.864 14.05m90.472-14.485c-1.52 1.023-13.225 19.621-15.497 24.623-5.206 11.464 1.388 22.599 13.389 22.608 8.984.007 14.792-4.968 15.456-13.238.347-4.322-.001-5.881-1.953-8.758-2.926-4.313-7.947-6.889-13.553-6.952-2.337-.026-4.25-.418-4.25-.87s2.25-4.088 5-8.08 5-7.897 5-8.678c0-1.523-1.811-1.853-3.592-.655m26.06.459c-.273.709-.602 5.786-.732 11.283l-.236 9.993h7.666c6.712 0 7.984.298 10.221 2.397 3.96 3.715 5.095 8.285 3.101 12.488-3.063 6.454-12.595 8.469-17.006 3.595-1.981-2.189-6.491-2.698-6.467-.73.044 3.589 6.891 7.741 12.775 7.746 11.58.01 19.18-10.952 14.823-21.379-2.069-4.953-6.812-7.843-13.999-8.532l-6.114-.585-.305-5.331c-.434-7.587.35-8.169 11.001-8.169 7.985 0 8.914-.189 8.615-1.75-.291-1.523-1.798-1.787-11.592-2.033-8.476-.213-11.379.036-11.751 1.007m210.148 8.526c-11.736 18.093-13.147 22.457-9.616 29.751 2.601 5.372 7.752 8.499 14 8.499 19.676 0 20.68-26.883 1.074-28.767-2.79-.268-5.074-.942-5.074-1.497 0-.556 2.025-4.084 4.5-7.841 2.475-3.757 4.5-7.52 4.5-8.363 0-3.862-3.583-.724-9.384 8.218m28.902-8.778c-1.442 2.333 1.068 3.028 10.934 3.028 7.356 0 10.466.36 10.793 1.25.252.688-3.581 9.889-8.52 20.448-8.611 18.414-10.13 23.747-6.122 21.504 2.372-1.327 19.599-38.988 19.762-43.202l.135-3.5-13.173-.278c-8.249-.175-13.411.105-13.809.75m92.774 7.778c-8.824 13.635-11.625 19.608-11.625 24.788 0 14.452 20.807 19.985 28.933 7.694 2.397-3.626 2.408-11.821.02-15.433-2.271-3.435-9.167-6.799-13.936-6.799-2.026 0-3.684-.489-3.684-1.087 0-.597 2.291-4.4 5.09-8.449 2.8-4.05 4.798-7.836 4.441-8.414-1.542-2.494-3.928-.505-9.239 7.7m232.226-7.778c-1.421 2.298 1.05 3.029 10.291 3.043 5.33.009 10.304.404 11.052.878 1.452.92 1.773.132-11.335 27.807-3.322 7.013-5.518 12.877-5.167 13.793 1.24 3.231 4.317-.406 8.622-10.189 2.373-5.392 6.758-14.979 9.744-21.304 3.889-8.235 5.165-11.926 4.496-13-.738-1.184-3.687-1.559-14.002-1.778-8.175-.175-13.304.106-13.701.75m-193.097 3.455c-3.761 1.628-5.913 6.156-4.581 9.639 4.06 10.621 19.507 6.422 16.753-4.553-1.141-4.546-7.388-7.156-12.172-5.086m242.579-.341c-1.375.511-3.601 2.545-4.947 4.52-2.011 2.953-2.52 5.132-2.858 12.243-.69 14.516 2.606 21.778 10.355 22.818 3.374.452 4.569.104 7.182-2.095 4.148-3.49 5.683-8.371 5.683-18.072.001-10.403-2.664-16.87-7.842-19.034-3.956-1.653-4.122-1.661-7.573-.38m-123.296 1.51c-5.305 2.877-6.182 9.718-1.866 14.549 2.462 2.755 3.469 3.167 7.591 3.105 5.595-.085 9.213-2.827 10.122-7.67.872-4.651-1.011-8.456-5.013-10.128-4.365-1.824-7.275-1.785-10.834.144m-598.635 3.6c-3.17 3.722-13.097 20.949-12.567 21.807.784 1.269 14.184 1.315 14.964.052.321-.52.684-5.77.806-11.668.223-10.733-.576-13.275-3.203-10.191M46.5 796.713c-1.1.265-3.237 1.647-4.75 3.071-5.757 5.422-2.373 15.258 5.775 16.787 12.602 2.364 18.63-14.266 6.941-19.15-3.485-1.456-4.487-1.545-7.966-.708m119.878.724c-6.974 3.035-8.619 11.042-3.312 16.126 2.559 2.452 3.894 2.937 8.082 2.937 4.402 0 5.373-.4 7.934-3.266 5.047-5.648 3.362-12.897-3.681-15.84-4.061-1.697-5.036-1.692-9.023.043m241.881.003c-3.817 1.715-6.819 7.193-5.916 10.792 1.699 6.768 8.145 10.082 15.127 7.778 4.405-1.454 6.73-4.776 6.73-9.618 0-7.304-8.717-12.199-15.941-8.952m121.062.173c-4.434 2.187-6.799 7.407-5.348 11.804 1.721 5.216 4.334 6.971 10.467 7.031 6.138.06 8.835-1.722 10.572-6.983 1.542-4.674-.667-9.599-5.29-11.793-4.339-2.059-6.323-2.07-10.401-.059m243.057-.176c-6.844 2.979-8.432 10.232-3.46 15.797 2.582 2.89 3.513 3.266 8.082 3.266 4.569 0 5.5-.376 8.082-3.266 5.047-5.648 3.362-12.897-3.681-15.84-4.061-1.697-5.036-1.692-9.023.043m121.074-.07c-6.747 3.025-8.396 10.426-3.534 15.867 2.54 2.842 3.55 3.266 7.794 3.266 6.404 0 9.981-2.349 10.881-7.144.857-4.567-.356-8.109-3.593-10.492-3.45-2.541-7.926-3.121-11.548-1.497m-608.529 2.556c-3.954 3.954-4.075 9.652-.287 13.441 2.091 2.091 3.597 2.636 7.278 2.636 5.388 0 8.312-1.718 10.045-5.901 4.024-9.715-9.449-17.763-17.036-10.176m364.965-1.423c-5.43 2.951-6.115 10.364-1.393 15.086 1.89 1.889 3.47 2.414 7.272 2.414 6.303 0 10.233-3.603 10.233-9.382 0-7.711-8.749-12.12-16.112-8.118m38.943.03c-3.823 2.076-5.353 7.286-3.465 11.804 1.791 4.287 4.184 5.666 9.828 5.666 6.029 0 9.806-3.512 9.806-9.117 0-8.009-8.612-12.458-16.169-8.353m244.894-.544c-6.602 2.033-8.893 10.382-4.312 15.708 2.066 2.401 3.159 2.806 7.582 2.806 4.574 0 5.505-.376 8.087-3.266 1.605-1.796 2.918-4.129 2.918-5.185 0-7.181-7.185-12.246-14.275-10.063m79.344 1.764c-4.269 3.962-4.532 9.878-.614 13.795 1.927 1.928 3.49 2.455 7.277 2.455 5.807 0 8.729-1.836 10.249-6.442 3.123-9.464-9.436-16.747-16.912-9.808m-808.85 58.506c-3.444 1.103-9.219 6.849-9.219 9.172 0 2.981 3.27 2.561 7.118-.915 4.945-4.468 10.603-4.883 14.427-1.058 4.966 4.965 3.679 7.517-11.666 23.134C188.296 905.466 188.721 907 209.983 907c13.11 0 15.017-.381 15.017-3 0-2.552-1.929-3-12.915-3-5.363 0-9.983-.231-10.265-.513-.282-.282 3.899-4.848 9.292-10.147 11.009-10.816 14.454-16.512 13.395-22.152-.836-4.457-5.075-8.697-10.086-10.088-4.589-1.274-5.798-1.256-10.202.156m727.109.682c-2.295 1.042-4.995 3.15-6 4.684-2.616 3.993-2.412 10.596.422 13.612 2.794 2.974 2.811 3.956.112 6.361-9.83 8.759-2.578 23.405 11.589 23.405 13.54 0 20.716-14.437 11.469-23.075l-2.965-2.77 2.522-3.717c4.838-7.129 2.098-15.628-6.148-19.074-4.281-1.789-5.994-1.699-11.001.574m-775.224-.024c-.767.486-1.119 1.605-.781 2.485.505 1.315 2.359 1.604 10.396 1.616 12.273.02 13.206.508 10.785 5.642a7584.923 7584.923 0 0 1-9.158 19.238c-4.04 8.468-7.346 16.005-7.346 16.75 0 1.708 4.427 1.789 5.7.105.519-.687 3.685-7.325 7.034-14.75 3.349-7.425 7.479-16.498 9.178-20.162 5.264-11.356 4.775-11.843-11.862-11.823-6.903.009-13.178.413-13.946.899m167.917.202c-3.241 1.293-6.021 3.85-6.021 5.539 0 1.903 2.402 1.669 6.739-.655 4.77-2.557 8.312-2.535 11.626.073 5.266 4.141 2.77 12.98-4.09 14.485-4.906 1.077-5.429 1.405-5.086 3.189.238 1.237 1.634 1.927 4.74 2.342 7.752 1.038 11.491 8.565 7.055 14.204-4.239 5.389-12.23 5.643-17.64.56-2.4-2.255-5.344-1.923-5.344.601 0 .835 1.872 2.756 4.159 4.27 3.367 2.228 5.238 2.738 9.823 2.675 7.202-.098 11.412-2.517 14.122-8.113 1.804-3.728 1.909-4.717.841-7.954-.671-2.033-2.579-4.937-4.239-6.454l-3.019-2.757 3.156-3.595c8.952-10.196-3.435-23.752-16.822-18.41m195.673-.476c-.382.381-.694 1.518-.694 2.527 0 2.036-.123 2.017 12.081 1.843 5.991-.086 8.893.271 9.616 1.184.754.951-.217 3.909-3.581 10.898-9.11 18.932-14.234 30.123-13.928 30.418.425.409 3.027.753 4.598.608.707-.065 2.118-2.031 3.137-4.368 1.018-2.337 3.529-7.85 5.579-12.25 10.654-22.87 12.688-27.976 11.741-29.479-.764-1.214-3.672-1.577-14.407-1.798-7.397-.152-13.761.035-14.142.417m42.506.56c-.787.787-1.2 4.964-1.2 12.14v10.94l5.478-.566c7.561-.78 12.18.678 14.57 4.597 2.751 4.512 2.462 8.087-.966 11.923-2.449 2.742-3.617 3.266-7.274 3.266-3.004 0-5.245-.699-7.217-2.25-3.161-2.486-6.182-2.926-6.873-1-.718 2.005.992 4.408 4.825 6.777 4.963 3.067 13.788 2.483 18.663-1.235 12.413-9.468 5.522-27.785-10.456-27.79L567 876v-5.892c0-5.483.177-5.936 2.553-6.532 1.404-.352 5.478-.56 9.053-.462 7.098.195 9.569-.993 7.429-3.572-1.634-1.968-21.917-2.26-23.835-.342m320.836.256c-2.312 2.786-.054 3.544 10.554 3.544 7.549 0 10.609.355 10.961 1.271.268.699-3.571 9.935-8.532 20.523-4.96 10.588-9.019 19.643-9.019 20.122 0 1.762 2.961 1.934 4.893.284 1.095-.935 3.996-6.2 6.447-11.7 2.451-5.5 6.331-14.027 8.623-18.949 4.944-10.618 5.894-14.395 3.932-15.637-.767-.486-7.077-.89-14.023-.899-9.849-.012-12.893.305-13.836 1.441m169.607-.484c-8.386 2.677-12.284 13.185-7.687 20.724 2.742 4.497 6.027 6.343 12.467 7.008 3.067.317 5.576.85 5.574 1.186-.001.335-2.25 3.985-4.997 8.11-5.433 8.157-6.004 10-3.103 10 1.765 0 8.767-9.821 16.018-22.468 4.677-8.158 3.396-18.1-2.929-22.73-2.937-2.15-11.239-3.139-15.343-1.83m82.772.449c-7.328 3.191-9.726 11.679-4.915 17.397 2.974 3.534 3.095 4.637.7 6.375-7.231 5.249-6.782 15.408.923 20.895 4.111 2.927 13.346 3.14 17.548.404 8.023-5.223 8.947-14.235 2.139-20.856-2.932-2.851-2.937-2.873-1.002-5 4.561-5.016 5.148-8.385 2.365-13.574-3.301-6.155-10.976-8.593-17.758-5.641m36.542.829c-1.836 1.237-4.458 4.425-5.826 7.084-2.128 4.135-2.495 6.229-2.541 14.5-.063 11.289 1.186 15.598 5.937 20.491 6.289 6.476 16.303 5.798 21.704-1.469 6.406-8.62 6.47-28.191.119-36.607-4.881-6.468-13.188-8.181-19.393-3.999m-1136.774.471c.297 1.552 1.712 1.815 11.079 2.063 8.117.214 10.738.608 10.738 1.612 0 1.468-3.246 8.832-12.136 27.532-4.125 8.677-5.591 12.745-4.859 13.477.695.695 1.57.719 2.588.073 2.102-1.337 20.526-41.483 20.182-43.978-.258-1.875-1.142-2.017-14.104-2.279-12.799-.258-13.803-.146-13.488 1.5m48.004 2.319c-3.006 2.393-5.187 4.935-5.187 6.045 0 2.526.931 2.417 5.003-.587 1.866-1.377 3.743-2.152 4.172-1.723.428.428.902 9.317 1.052 19.752.262 18.215.353 18.973 2.273 18.973 1.942 0 2-.667 2-23 0-22.471-.047-23.007-2.063-23.295-1.233-.176-4.148 1.365-7.25 3.835M277.5 860c-1.425 2.305 1.122 3 11 3 5.71 0 10.652.437 10.983.972.33.535-1.173 4.697-3.34 9.25-14.529 30.521-15.087 31.862-13.514 32.466.856.328 2.312-.248 3.285-1.299 2.773-2.998 20.138-42.091 19.47-43.831-.5-1.303-2.783-1.558-13.932-1.558-7.811 0-13.59.414-13.952 1m120.931.112c-1.273 2.059 2.018 2.857 11.85 2.873 7.032.011 9.92.376 10.275 1.3.271.706-1.026 4.419-2.882 8.25C409.411 889.591 403 903.723 403 904.881c0 .724.927 1.123 2.185.939 1.791-.262 3.971-4.242 12.1-22.086 5.454-11.972 9.66-22.434 9.347-23.25-.464-1.21-3.055-1.484-14.042-1.484-8.806 0-13.71.385-14.159 1.112m56.394.591c-4.014 4.592-18.825 28.865-18.825 30.85 0 2.964 1.616 3.447 11.523 3.447 9.344 0 9.873.346 9.936 6.492.034 3.328.381 4.008 2.041 4.008 1.666 0 2.083-.833 2.5-4.995.463-4.623.723-5.034 3.5-5.51 3.497-.6 4.089-3.34.823-3.805-1.198-.171-2.648-.876-3.222-1.568-.587-.708-1.166-7.569-1.322-15.69L461.5 859.5l-2.552-.297c-1.51-.176-3.194.436-4.123 1.5m186.358.018c.297 1.552 1.712 1.815 11.079 2.063 12.154.321 12.483.617 8.771 7.871-7.987 15.61-15.937 33.841-15.116 34.662 1.896 1.896 4.048-.37 7.607-8.015 10.339-22.208 15.571-34.57 15.278-36.1-.286-1.488-2.06-1.737-14.143-1.981-12.788-.258-13.791-.146-13.476 1.5m55.225-.956c-1.176.791-12.127 17.793-14.644 22.735-2.849 5.595-3.154 11.063-.88 15.752 4.607 9.496 17.219 11.375 25.227 3.757 3.562-3.388 3.889-4.144 3.889-8.986 0-9.271-5.705-15.023-14.901-15.023-5.391 0-5.33-1.46.401-9.659 2.475-3.54 4.5-7.09 4.5-7.889 0-1.551-1.797-1.894-3.592-.687m66.11.207c-1.445 2.338 1.071 3.028 11.041 3.028 9.412 0 10.441.179 10.441 1.811 0 .997-4.006 10.334-8.901 20.75-4.896 10.417-8.526 19.336-8.067 19.822 1.767 1.87 4.198-.638 7.387-7.621a2414.202 2414.202 0 0 1 7.523-16.262c6.856-14.664 8.254-18.241 7.884-20.17-.315-1.646-1.677-1.858-13.512-2.108-8.24-.175-13.398.106-13.796.75m39 0c-1.443 2.334 1.068 3.028 10.958 3.028 7.18 0 10.48.369 10.758 1.203.221.661-3.773 10.133-8.875 21.047-7.524 16.094-8.986 19.956-7.74 20.434.845.324 2.172-.046 2.948-.823 2.374-2.374 19.554-41.013 19.233-43.258-.285-1.999-.95-2.117-13.473-2.381-8.249-.175-13.411.105-13.809.75M1005.5 860c-1.426 2.308 1.124 3 11.059 3 9.614 0 10.441.151 10.441 1.912 0 1.052-2.739 7.689-6.086 14.75-3.347 7.061-7.363 15.538-8.923 18.838-2.943 6.224-2.624 9.015.787 6.873.947-.595 6.109-10.665 11.47-22.377 7.507-16.401 9.49-21.606 8.628-22.646-1.366-1.645-26.378-1.965-27.376-.35m46.853 3.926c-10.908 6.652-1.833 22.525 10.282 17.984 8.085-3.03 9.263-13.562 2.012-17.984-1.731-1.055-4.497-1.919-6.147-1.919-1.65 0-4.416.864-6.147 1.919m84.949-.914c-1.208.487-2.905 2.254-3.771 3.928-4.41 8.527 6.974 16.282 13.833 9.424 3.76-3.761 3.587-8.386-.441-11.775-3.177-2.674-5.822-3.107-9.621-1.577m37.93.216c-1.247.602-3.272 2.709-4.5 4.683-1.957 3.146-2.232 4.946-2.232 14.589 0 9.729.265 11.426 2.292 14.686 4.228 6.8 12.631 7.258 17.116.932 4.154-5.857 4.984-20.598 1.616-28.7-2.573-6.188-8.747-8.862-14.292-6.19m-243.777 2.227c-2.971 2.97-3.136 6.41-.471 9.798 2.605 3.311 6.296 4.171 9.903 2.305 3.203-1.656 4.113-3.346 4.113-7.64 0-6.569-8.605-9.404-13.545-4.463m-476.206 1.391c-2.165 1.338-14.351 21.446-13.826 22.814.586 1.528 12.156 1.893 14.426.455.993-.63 1.365-3.79 1.41-11.992.033-6.125-.137-11.334-.378-11.575-.241-.242-.976-.108-1.632.298M689.5 883.161c-5.585 3.071-7.239 10.358-3.446 15.18 1.129 1.436 3.785 3.13 5.902 3.764 7.563 2.266 15.017-4.106 13.605-11.63-1.249-6.657-10.005-10.645-16.061-7.314m447.77.499c-5.327 1.132-8.188 10.157-4.767 15.041 3.653 5.215 13.234 4.991 17.481-.408 5.821-7.4-2.373-16.831-12.714-14.633m-207.47 3.386c-2.623 2.623-2.964 3.554-2.455 6.691.797 4.912 3.533 7.382 8.839 7.98 3.738.422 4.895.087 7.612-2.199 4.178-3.516 4.51-9.303.749-13.063-3.755-3.756-10.676-3.478-14.745.591M43.396 942.429c-7.328 3.19-9.749 12.622-4.761 18.549l2.635 3.131-2.513 2.696c-3.49 3.743-4.758 6.512-4.753 10.379.009 8.051 8.781 14.666 17.809 13.428 12.238-1.677 18.034-14.919 10.032-22.921-2.691-2.69-3.777-5.691-2.061-5.691.432 0 1.557-1.307 2.5-2.904 6.172-10.449-6.825-21.917-18.888-16.667m123.789-.438c-4.215.995-7.819 4.37-9.228 8.64-1.311 3.971-.691 6.343 2.714 10.39l2.533 3.01-3.602 3.988c-2.886 3.194-3.602 4.791-3.602 8.034 0 8.316 5.841 13.947 14.467 13.947 9.401 0 15.522-5.419 15.529-13.747.003-3.475-.651-4.972-3.598-8.234l-3.602-3.988 2.602-3.092c4.003-4.757 3.679-11.062-.798-15.539-1.87-1.87-4.308-3.4-5.418-3.4-1.11 0-2.618-.178-3.35-.396-.733-.217-2.824-.043-4.647.387m37.984.004c-3.925.926-9.169 5.611-9.169 8.192 0 2.435 3.498 2.368 5.226-.1.737-1.052 2.964-2.687 4.949-3.634 3.447-1.643 3.784-1.636 7.467.163 2.122 1.036 4.435 3.101 5.141 4.588 2.116 4.462-.577 8.794-13.264 21.341-8.393 8.3-11.519 12.049-11.519 13.816 0 1.334.712 2.698 1.582 3.032.87.334 7.34.607 14.377.607 9.877 0 13.067-.326 13.983-1.43 2.06-2.482-2.284-3.784-11.805-3.54-10.691.274-11.137.229-11.137-1.137 0-.609 4.24-5.12 9.423-10.025 12.663-11.985 15.521-17.969 12.061-25.261-2.564-5.402-10.153-8.3-17.315-6.612m84.421-.18c-9.048 1.085-13.926 12.294-8.09 18.59 3.014 3.253 3.137 4.716.531 6.343-3.228 2.017-5.314 7.102-4.723 11.513.92 6.857 7.238 11.739 15.192 11.739 8.784 0 14.5-5.283 14.5-13.401 0-3.881-.566-5.22-3.651-8.634l-3.65-4.041 2.538-2.712c3.362-3.592 4.142-6.533 2.806-10.581-2.069-6.268-8.084-9.7-15.453-8.816m35.151.59c-4.545 1.651-6.741 3.361-6.741 5.249 0 2.124 2.848 2.784 4.787 1.109.942-.814 3.249-1.996 5.126-2.626 2.836-.953 4.018-.85 7 .608 3.194 1.563 3.621 2.232 3.899 6.107.39 5.42-1.538 7.798-7.544 9.311-5.607 1.412-5.51 4.02.186 4.946 4.345.706 9.546 5.533 9.546 8.86 0 9.052-11.243 13.268-18.468 6.925-5.273-4.63-9.444-1.895-4.282 2.807 3.649 3.323 6.312 4.299 11.734 4.299 8.008 0 12.697-3.176 14.92-10.106 1.431-4.465.256-8.064-4.113-12.594l-3.086-3.2 3.147-3.585c4.53-5.159 4.4-10.196-.385-14.982-1.944-1.943-4.531-3.539-5.75-3.547-1.219-.007-3.117-.224-4.217-.48-1.1-.257-3.692.147-5.759.899m83.225-.644c-8.307 4.005-11.415 13.808-5.946 18.757 2.475 2.24 2.547 5.108.159 6.386-1.001.536-2.641 2.793-3.643 5.016-1.74 3.859-1.744 4.246-.09 8.578 6.032 15.794 30.536 12.389 30.55-4.245.003-3.484-.651-4.972-3.641-8.282l-3.645-4.034 2.079-2.218c4.93-5.264 4.675-11.984-.648-17.084-2.217-2.124-4.102-2.85-8.257-3.183-2.961-.237-6.074-.098-6.918.309m123.153.325c-4.784 1.012-9.148 5.714-9.798 10.556-.437 3.26-.072 4.5 2.074 7.051 3.304 3.927 3.267 4.886-.318 8.235C514.385 976.047 521.606 990 534.5 990c12.944 0 19.976-13.678 11.426-22.227-3.185-3.186-3.681-5.228-1.572-6.473 3.676-2.171 4.683-8.736 2.03-13.228-2.896-4.902-9.026-7.306-15.265-5.986m121.09-.062c-3.793.853-6.815 3.314-8.811 7.174-2.038 3.94-1.746 5.982 1.557 10.901l2.955 4.399-2.926 3.019c-4.692 4.84-5.514 8.495-3.127 13.892 2.551 5.768 6.957 8.582 13.443 8.587 8.15.007 14.462-4.806 15.392-11.735.591-4.411-1.495-9.496-4.723-11.513-2.613-1.631-2.483-3.144.531-6.157 1.739-1.74 2.5-3.594 2.5-6.095 0-8.962-7.529-14.555-16.791-12.472m118.061.459c-6.91 3.003-9.317 12.144-4.77 18.106 2.883 3.78 3.091 4.97 1.006 5.77-2.239.86-5.498 6.756-5.502 9.957-.005 3.391 1.381 6.262 4.783 9.911 5.646 6.054 15.604 6.125 22.21.156 6.176-5.579 6.325-13.266.379-19.5l-2.496-2.618 2.56-3.772c1.408-2.075 2.558-5.172 2.556-6.883-.011-9.299-11.162-15.285-20.726-11.127m125.32-.668c-9.048 1.085-13.926 12.294-8.09 18.59 3.014 3.253 3.137 4.716.531 6.343-3.228 2.017-5.314 7.102-4.723 11.513.92 6.857 7.238 11.739 15.192 11.739 8.784 0 14.5-5.283 14.5-13.401 0-3.881-.566-5.22-3.651-8.634l-3.65-4.041 2.538-2.712c3.362-3.592 4.142-6.533 2.806-10.581-2.069-6.268-8.084-9.7-15.453-8.816m38.941.005c-4.011.48-7.999 3.48-9.527 7.171-1.631 3.937-.646 10.033 1.966 12.169 2.562 2.096 2.583 4.013.061 5.588-3.228 2.017-5.314 7.102-4.723 11.513.92 6.857 7.238 11.739 15.192 11.739 8.943 0 14.5-5.265 14.5-13.738 0-4.145-.472-5.392-2.972-7.845-3.563-3.496-3.727-5.044-.861-8.094 3.424-3.646 3.021-10.596-.838-14.456-3.162-3.162-7.835-4.64-12.798-4.047m81.483.244c-8.377 1.874-11.926 12.321-6.412 18.875l2.602 3.092-3.602 3.988c-2.947 3.262-3.601 4.759-3.598 8.234.007 8.372 6.135 13.753 15.647 13.74 8.289-.011 14.33-5.798 14.342-13.74.006-3.477-.646-4.97-3.595-8.234l-3.602-3.988 2.602-3.092c3.646-4.333 4.13-7.206 1.951-11.589-3.14-6.319-8.992-8.929-16.335-7.286m38.923-.045c-7.121 1.21-11.92 6.772-11.93 13.827-.013 8.284 5.1 13.317 14.198 13.975 3.187.231 5.795.836 5.795 1.344 0 .509-2.286 4.313-5.079 8.452-4.639 6.875-5.639 10.383-2.959 10.383 1.329 0 5.406-5.669 12.441-17.297 4.133-6.831 5.807-10.683 6.243-14.363 1.314-11.097-6.963-18.318-18.709-16.321m80.408-.382c-1.186.262-3.753 2.029-5.706 3.925-9.888 9.603-2.464 25.438 11.926 25.438 1.889 0 3.435.245 3.435.545 0 .3-2.25 3.88-5 7.955-5.625 8.335-6.161 10.5-2.6 10.5 1.98 0 3.764-2.146 10.18-12.25 4.279-6.737 8.42-14.428 9.202-17.09 1.271-4.327 1.242-5.308-.27-9.267-2.331-6.106-6.935-9.427-13.692-9.878-2.926-.196-6.29-.141-7.475.122m38.048.287c-3.561 1.531-8.202 8.114-9.502 13.477-1.54 6.355-1.504 15.691.084 21.599 4.017 14.945 19.483 18.764 28.216 6.967 2.481-3.35 4.785-12.245 4.785-18.467 0-8.425-2.413-15.408-6.864-19.858-3.473-3.474-4.625-4.006-9.288-4.295-2.928-.181-6.272.079-7.431.577M82.5 946.179c-2.75 2.227-5.144 4.9-5.32 5.94-.497 2.935 2.59 3.446 5.32.881 1.426-1.339 3.048-2.004 4.002-1.638 1.399.537 1.581 2.925 1.428 18.704-.183 18.975.325 21.524 3.848 19.303 1.526-.962 1.753-3.49 1.992-22.256.172-13.461-.114-21.888-.785-23.141-1.598-2.986-4.944-2.282-10.485 2.207m362.591 11.474c-5.55 8.609-10.091 16.458-10.091 17.441 0 2.785 1.795 3.369 12 3.906l9.5.5.5 5c.421 4.215.848 5.049 2.715 5.315 1.644.234 2.371-.311 2.824-2.116.336-1.337.523-3.053.417-3.815-.504-3.614.126-4.884 2.422-4.884 1.307 0 2.978-.724 3.712-1.608 1.134-1.367 1.048-1.818-.569-3-1.047-.766-2.717-1.392-3.712-1.392-1.656 0-1.809-1.144-1.809-13.566 0-7.461-.466-14.436-1.035-15.5-.655-1.223-2.091-1.934-3.909-1.934-2.613 0-3.79 1.421-12.965 15.653m117.4-14.436c-.259.706-.588 5.783-.731 11.283l-.26 10 6.5-.319c5.478-.269 7.045.048 9.964 2.016 1.949 1.313 4.069 3.923 4.847 5.965 1.208 3.175 1.179 4.057-.231 7.028-3.237 6.821-10.447 8.624-16.915 4.229-2.089-1.42-4.443-2.334-5.232-2.032-4.898 1.88 3.631 8.613 10.911 8.613 12.16 0 19.758-10.64 15.269-21.383-2.069-4.953-6.812-7.843-13.999-8.532l-6.114-.585-.31-5.47c-.41-7.232.74-8.03 11.574-8.03 7.445 0 8.345-.196 8.047-1.75-.291-1.523-1.798-1.787-11.592-2.033-8.455-.212-11.374.036-11.728 1m133.69.065c-2.26 2.723-11.376 17.128-13.928 22.009-4.948 9.461-2.938 19.235 4.776 23.224 4.172 2.157 11.501 1.877 15.925-.609 4.957-2.786 7.046-6.574 7.046-12.775 0-4.231-.507-5.639-3.091-8.582-3.192-3.635-9.519-6.146-13.117-5.205-3.577.935-3.023-2.268 1.607-9.296 2.531-3.841 4.601-7.673 4.601-8.516 0-1.861-2.354-2.016-3.819-.25m104.309-.265c-.364.589-.118 1.726.546 2.527.916 1.104 3.721 1.456 11.586 1.456 5.708 0 10.378.404 10.378.897 0 .494-2.527 6.231-5.615 12.75-13.972 29.494-14.035 29.682-9.725 29.169 2.413-.287 3.535-2.215 12.112-20.816 5.198-11.275 9.514-21.85 9.59-23.5l.138-3-14.174-.277c-9.285-.181-14.403.092-14.836.794M168 946.108c-10.708 4.201-5.378 18.662 5.784 15.691 7.425-1.976 7.814-12.398.576-15.422-1.813-.757-3.423-1.348-3.578-1.314-.155.035-1.407.505-2.782 1.045m120.887.009c-1.437.527-3.452 2.516-4.477 4.421-1.822 3.382-1.821 3.543.028 6.976 1.257 2.336 2.927 3.79 4.977 4.337 10.921 2.911 16.402-11.105 6.037-15.436-1.863-.778-3.515-1.379-3.67-1.336-.155.043-1.458.51-2.895 1.038m243.128.073c-6.318 2.337-8.007 8.383-3.731 13.354 4.817 5.6 15.049 1.88 15.049-5.47 0-5.421-6.235-9.764-11.318-7.884m120.314.268c-10.141 4.411-4.511 18.263 6.256 15.393 2.022-.539 3.716-1.995 4.917-4.225 2.407-4.47.865-8.604-4.092-10.967-1.913-.913-3.575-1.641-3.694-1.62-.119.022-1.643.66-3.387 1.419m242.558-.341c-1.437.527-3.452 2.516-4.477 4.421-1.822 3.382-1.821 3.543.028 6.976 1.257 2.336 2.927 3.79 4.977 4.337 10.921 2.911 16.402-11.105 6.037-15.436-1.863-.778-3.515-1.379-3.67-1.336-.155.043-1.458.51-2.895 1.038m38.462.581c-3.028 1.51-5.349 4.882-5.349 7.772 0 .757 1.165 2.761 2.589 4.453 6.614 7.861 19.147-.075 14.331-9.073-.853-1.593-6.799-5.09-8.138-4.786-.155.035-1.7.771-3.433 1.634m83.072-.282c-4.185 1.826-6.118 6.487-4.405 10.622 1.528 3.688 3.701 4.962 8.466 4.962 4.372 0 8.518-3.894 8.518-8 0-2.637-3.935-8-5.87-8-.532 0-1.566-.209-2.298-.464-.733-.254-2.717.141-4.411.88m38.079-.013c-4.711 2.079-6.955 5.234-6.955 9.779 0 5.599 4.619 9.818 10.748 9.818 5.093 0 8.437-2.11 10.26-6.473 2.286-5.471-.144-10.572-6.271-13.165-3.864-1.636-3.986-1.635-7.782.041m-1008.5.85c-3.468 1.811-5.281 5.879-4.055 9.102 3.163 8.32 16.11 6.44 16.033-2.328-.051-5.714-6.75-9.503-11.978-6.774m363.5-.086c-5.4 3.208-6.002 8.391-1.423 12.244 4.069 3.424 7.372 3.294 11.102-.436 2.439-2.439 2.896-3.554 2.36-5.75-1.325-5.429-7.699-8.636-12.039-6.058m363.815-.198c-4.744 1.994-5.736 8.701-1.86 12.576 6.914 6.915 18.032-2.919 11.795-10.431-2.028-2.442-6.784-3.469-9.935-2.145m363.014.441c-3.776 1.699-5.329 4.264-5.329 8.802 0 4.396 2.2 7.369 6.503 8.789 4.835 1.596 10.042-.208 12.571-4.354 2.628-4.31 2.414-7.074-.824-10.666-3.277-3.635-8.325-4.639-12.921-2.571m38.912-.134c-3.373 1.947-4.87 4.601-6.192 10.977-1.906 9.199-.067 19.951 4.192 24.497 3.087 3.296 10.019 3.151 13.194-.275 6.079-6.558 5.886-28.255-.301-33.854-2.512-2.273-8.092-2.963-10.893-1.345m-721.132 5.092C451.94 954.982 442 971.221 442 972.152c0 .522 3.205.806 7.25.642l7.25-.294.284-10.75c.275-10.42-.259-12.293-2.675-9.382m236.269 14.03c-4.132 1.85-6.385 5.25-6.346 9.575.108 12.039 19.276 13.56 21.5 1.706 1.585-8.446-7.08-14.896-15.154-11.281m-647.455 3.525c-3.82 3.82-4.015 9.076-.468 12.622C44.4 984.491 45.936 985 49.866 985c4.307 0 5.295-.403 7.545-3.077 1.424-1.692 2.589-3.921 2.589-4.953 0-8.661-10.946-13.178-17.077-7.047m121.827-1.843c-2.184 1.272-4.75 6.118-4.75 8.97 0 1.183 1.53 3.68 3.4 5.55 4.365 4.365 9.888 4.711 14.414.903 4.915-4.135 5.001-9.688.226-14.463-2.252-2.252-10.098-2.819-13.29-.96m119.985 1.457c-3.381 3.382-4.126 6.807-2.262 10.411 3.074 5.945 9.741 7.811 15.58 4.361 5.642-3.332 6.287-11.323 1.235-15.297-3.864-3.039-11.255-2.773-14.553.525m123.685-1.392c-3.185 1.545-5.722 6.51-4.939 9.667 1.214 4.892 4.324 7.188 9.739 7.188 6.398 0 9.78-3.066 9.78-8.866 0-6.937-7.866-11.247-14.58-7.989m118.169 1.932c-6.52 7.748.309 17.478 10.874 15.496 7.184-1.348 9.844-9.678 4.948-15.496-2.294-2.726-3.196-3.077-7.911-3.077s-5.617.351-7.911 3.077m121.906-.663c-9.306 9.306 4.307 22.513 14.428 13.997 2.55-2.146 3.077-3.319 3.077-6.854 0-6.388-3.315-9.557-9.998-9.557-4.051 0-5.587.494-7.507 2.414m121.553.384c-3.252 3.252-3.882 6.768-1.885 10.518 1.862 3.494 4.024 4.618 8.951 4.652 12.852.089 13.453-16.248.651-17.691-4.213-.475-4.967-.229-7.717 2.521m120.503-.258c-3.221 3.475-3.901 6.882-2.078 10.408 3.074 5.945 9.741 7.811 15.58 4.361 5.642-3.332 6.287-11.323 1.235-15.297-3.905-3.071-11.659-2.794-14.737.528m39.223.21c-4.118 4.355-4.065 9.113.149 13.327 7.041 7.041 19.696.569 17.594-8.999-1.572-7.16-12.536-9.835-17.743-4.328m83.186-.71c-4.775 4.775-4.689 10.328.226 14.463 4.526 3.808 10.049 3.462 14.414-.903 3.737-3.737 4.175-6.201 1.89-10.62-1.963-3.795-4.324-4.98-9.924-4.98-3.262 0-5.148.582-6.606 2.04m-724.685 57.971c-7.143 1.609-12.265 7.573-12.271 14.289-.008 8.016 6.33 14.553 14.644 15.103 3.137.208 4.756.746 4.58 1.524-.149.662-2.332 4.331-4.851 8.154-4.573 6.942-5.153 10.403-1.63 9.733 1.962-.373 11.893-14.349 16.238-22.853 4.296-8.406 4.43-15.127.396-19.92-4.361-5.183-10.798-7.452-17.106-6.03m38.225-.043c-6.096 1.391-9.98 4.618-8.91 7.405.826 2.155 2.664 2.052 6.636-.369 8.82-5.378 18.717 1.921 13.229 9.756-.849 1.213-3.662 2.823-6.25 3.578-3.433 1.001-4.705 1.875-4.705 3.235 0 1.418 1.076 2.064 4.5 2.702 5.318.991 9 4.55 9 8.699 0 4.226-.919 5.933-4.072 7.563-4.662 2.411-9.404 1.862-13.275-1.537-3.845-3.376-4.891-3.624-6.6-1.564-1.654 1.993.022 4.829 4.481 7.585 2.988 1.847 4.665 2.137 10.464 1.809 5.642-.319 7.388-.842 9.548-2.86 7.004-6.543 7.217-13.173.651-20.213l-2.558-2.744 2.114-2.256c6.094-6.506 4.572-15.623-3.253-19.488-3.064-1.513-7.678-2.059-11-1.301m690 .053c-4.037.85-6.514 2.276-9.5 5.468-2.135 2.282-2.5 3.619-2.5 9.163 0 6.339.099 6.584 4.211 10.42 4.027 3.756 6.308 4.53 11.964 4.057 1.196-.099 2.421.217 2.721.703.301.487-1.896 4.436-4.882 8.776-4.543 6.604-5.21 8.112-4.088 9.24 2.297 2.309 4.981-.185 11.927-11.082 7.901-12.398 9.648-16.38 9.643-21.984-.008-9.734-9.444-16.878-19.496-14.761m37.979-.089c-7.558 1.806-11.885 7.11-11.885 14.568 0 8.735 5.89 14.731 14.472 14.731 2.824 0 4.934.455 4.934 1.065 0 .586-2.291 4.379-5.09 8.429-4.833 6.991-5.675 10.275-2.633 10.275 2.22 0 4.233-2.152 8.889-9.5 9.715-15.335 11.152-18.458 11.223-24.403.052-4.333-.447-6.289-2.212-8.661-4.052-5.449-11.169-8.064-17.698-6.504M42.206 1029.07c-14.026 7.129-8.368 26.93 7.695 26.93 2.484 0 4.099.465 4.099 1.181 0 .649-2.25 4.435-5 8.413-5.556 8.037-6.053 9.695-2.763 9.226 2.329-.333 9.692-10.612 15.809-22.067 3.745-7.015 4.247-14.544 1.239-18.573-5.181-6.939-13.508-8.958-21.079-5.11m122.244-.719c-7.49 3.399-11.031 11.818-7.895 18.772 2.441 5.412 6.556 8.139 13.103 8.682 3.034.251 5.341.929 5.339 1.569-.001.619-2.25 4.501-4.997 8.626-2.747 4.125-4.996 7.869-4.997 8.32-.002.45 1.009.675 2.247.5 2.316-.329 11.867-13.757 16.776-23.586 4.389-8.789 2.925-16.195-4.263-21.562-3.31-2.471-11.265-3.157-15.313-1.321m39.55-.23c-3.524 1.401-8 5.914-8 8.066 0 2.442 2.616 2.296 4.76-.266 2.053-2.452 6.462-4.921 8.789-4.921 3.197 0 8.28 3.172 9.394 5.863 1.845 4.453-.801 8.629-13.38 21.121-9.197 9.133-11.563 12.049-11.563 14.25V1075h14.833c8.159 0 15.103-.269 15.431-.598.329-.329.356-1.229.06-2-.418-1.089-3.079-1.402-11.931-1.402-8.661 0-11.393-.311-11.393-1.295 0-.713 4.526-5.669 10.057-11.014 12.911-12.477 15.396-18.156 11.057-25.271-3.297-5.408-11.676-7.859-18.114-5.299m202.271.843c-14.283 6.483-8.899 27.02 7.086 27.032 5.781.005 5.794-.093-1.365 10.517-4.066 6.024-4.768 7.636-3.533 8.11.848.325 2.109.373 2.803.107 1.479-.568 12.871-18.602 15.729-24.9 3.952-8.709 1.625-16.656-6.027-20.58-5.339-2.738-9.13-2.812-14.693-.286m120.729.221c-13.978 7.19-8.308 26.808 7.75 26.813 2.391.001 4.25.477 4.25 1.089 0 .597-2.25 4.341-5 8.319-5.488 7.938-6.004 9.594-2.993 9.594 1.982 0 4.141-2.954 14.494-19.831 5.098-8.312 5.917-15.841 2.3-21.169-4.506-6.639-13.298-8.674-20.801-4.815m120.411-.294c-7.43 4.531-9.835 11.536-6.398 18.637 2.669 5.512 7.496 8.63 13.502 8.721 2.467.037 4.485.533 4.485 1.101 0 .569-2.33 4.584-5.179 8.922-4.191 6.384-4.906 8.061-3.75 8.793.786.497 1.68.911 1.988.92 1.395.038 4.08-3.072 8.886-10.294 6.798-10.217 11.054-19.338 11.053-23.691-.001-4.796-2.826-10.011-6.896-12.73-4.413-2.948-13.17-3.136-17.691-.379m47.931.359c-2.174 2.438-12.109 18.257-14.728 23.45-.899 1.782-1.614 5.626-1.614 8.674 0 4.445.492 6.057 2.619 8.585 3.689 4.384 7.442 6.041 13.683 6.041 9.803 0 16.214-6.791 15.395-16.307-.674-7.817-6.763-12.654-17.524-13.919-2.235-.263-2.122-.579 2.852-8.037 4.941-7.406 5.772-10.737 2.681-10.737-.747 0-2.26 1.013-3.364 2.25m75.108-.899c-4.137 1.878-8.23 6.961-9.028 11.212-.497 2.648-.078 4.629 1.71 8.103 2.791 5.42 7.489 8.334 13.436 8.334 2.254 0 4.377.278 4.716.618.34.339-1.625 3.941-4.366 8.003-6.479 9.602-6.87 10.65-3.809 10.217 1.727-.244 3.96-2.699 8.04-8.838 13.679-20.582 14.721-28.782 4.614-36.328-3.31-2.471-11.265-3.157-15.313-1.321m122.012-.287c-6.522 1.897-11.326 10.435-9.485 16.857 1.917 6.683 8.056 11.079 15.473 11.079 2.503 0 4.546.338 4.542.75-.005.412-2.446 4.335-5.426 8.716-5.474 8.05-5.891 9.534-2.678 9.534 1.555 0 12.419-15.828 17.151-24.987 1.961-3.795 1.731-13.007-.406-16.214-3.557-5.34-11.923-7.843-19.171-5.735m38.953.303c-7.354 3.332-9.722 11.738-4.915 17.451 1.375 1.634 2.5 3.301 2.5 3.705 0 .404-1.575 2.478-3.5 4.609-12.453 13.784 10.379 29.977 23.437 16.621 2.635-2.694 3.063-3.871 3.063-8.41 0-4.726-.376-5.652-3.606-8.882l-3.606-3.606 2.039-2.178c7.457-7.961 2.897-19.309-8.168-20.325-2.288-.211-5.547.246-7.244 1.015m242.03-.408c-3.346 1.355-8.274 7.699-9.537 12.278-1.671 6.053-1.423 17.695.499 23.484.934 2.81 3.157 6.403 5.171 8.355 3.228 3.128 4.053 3.424 9.549 3.424 5.764 0 6.179-.174 9.876-4.137 4.727-5.068 6.249-10.25 6.184-21.064-.089-14.675-6.312-23.438-16.502-23.236-1.752.035-4.11.438-5.24.896m38.055.842c-6.943 4.426-9.5 10.522-9.5 22.647 0 10.076 1.933 16.125 6.596 20.645 3.19 3.092 4.059 3.407 9.404 3.407 5.361 0 6.208-.31 9.454-3.456 4.58-4.438 5.534-8.11 5.54-21.326.007-12.044-1.022-15.596-5.824-20.11-4.044-3.802-11.239-4.631-15.67-1.807m-1128.25 3.351c-2.984 2.341-5.25 4.923-5.25 5.983 0 2.402 1.822 2.377 4.436-.06 4.867-4.54 5.026-4.057 5.564 16.925.479 18.667.585 19.5 2.5 19.5 1.928 0 2.01-.761 2.283-21 .156-11.55.035-22.013-.269-23.25-.804-3.277-3.319-2.761-9.264 1.902m371.575-2.449c-4.014 4.592-18.825 28.865-18.825 30.85 0 2.964 1.616 3.447 11.523 3.447 9.344 0 9.873.346 9.936 6.492.034 3.328.381 4.008 2.041 4.008 1.666 0 2.083-.833 2.5-4.995.463-4.623.723-5.034 3.5-5.51 3.497-.6 4.089-3.34.823-3.805-1.198-.171-2.648-.876-3.222-1.568-.587-.708-1.166-7.569-1.322-15.69l-.279-14.432-2.552-.297c-1.51-.176-3.194.436-4.123 1.5m107.858-.985c-.906 1.492-1.895 18.039-1.208 20.204.618 1.946 1.155 2.106 5.101 1.514 6.098-.914 10.741.153 13.748 3.161 3.407 3.407 4.205 7.479 2.219 11.321-3.41 6.593-10.959 8.24-17.253 3.762-5.934-4.223-8.851-1.013-3.314 3.646 12.545 10.557 31.641-3.805 24.272-18.255-2.667-5.232-6.476-7.497-13.57-8.071l-6.178-.5-.295-5.59c-.199-3.77.143-5.954 1.05-6.706.739-.614 5.147-1.249 9.795-1.41 6.714-.234 8.45-.602 8.45-1.794 0-1.227-2.033-1.551-11.171-1.782-6.144-.155-11.385.07-11.646.5m238.835.254c-1.443 2.334 1.068 3.028 10.958 3.028 7.316 0 10.478.362 10.768 1.232.226.678-3.768 10.149-8.875 21.047-7.527 16.062-8.995 19.927-7.75 20.405.845.324 2.172-.046 2.948-.823 2.374-2.374 19.554-41.013 19.233-43.258-.285-1.999-.95-2.117-13.473-2.381-8.249-.175-13.411.105-13.809.75m333.35 3.278c-2.864 2.338-5.393 4.812-5.621 5.499-.752 2.272 2.766 2.587 5.054.452 5.019-4.683 5.159-4.272 5.699 16.799.479 18.667.585 19.5 2.5 19.5 1.931 0 2.009-.757 2.27-21.874.337-27.33-.151-28.335-9.902-20.376M46 1031.658c-.825.325-2.737 1.745-4.25 3.154-3.809 3.549-3.872 9.793-.138 13.527 2.871 2.872 7.92 4.244 11.551 3.141 8.166-2.481 10.305-13.506 3.487-17.973-2.716-1.78-8.347-2.758-10.65-1.849m121.284 0c-1.219.26-3.356 1.827-4.75 3.484-3.519 4.182-3.381 8.878.384 13.092 2.582 2.89 3.513 3.266 8.082 3.266 4.569 0 5.5-.376 8.082-3.266 7.298-8.167-.413-19.001-11.798-16.576m240.975.829c-3.817 1.659-6.825 7.122-5.916 10.745 1.755 6.99 8.957 10.341 15.95 7.419 4.089-1.709 5.907-4.525 5.907-9.151 0-4.504-1.541-6.959-5.567-8.87-4.143-1.966-6.118-1.993-10.374-.143m121.062.126c-1.779.878-3.913 3.115-4.846 5.081-2.289 4.824-.406 10.041 4.55 12.603 3.995 2.065 10.326 1.6 13.161-.966 5.322-4.816 3.872-14.155-2.618-16.867-4.407-1.842-6.265-1.814-10.247.149m243.963-.941c-1.219.252-3.356 1.813-4.75 3.47-7.352 8.737 3.064 20.464 13.696 15.419 11.775-5.588 4.189-21.607-8.946-18.889m120.168.686c-6.636 2.994-8.398 10.451-3.702 15.661 3.427 3.801 8.426 4.77 13.554 2.627 6.219-2.598 7.688-10.405 2.946-15.665-3.248-3.603-8.321-4.643-12.798-2.623m39.436.101c-7.783 4.351-4.401 15.541 4.698 15.541 4.046 0 8.414-4.195 8.414-8.081 0-6.123-7.683-10.494-13.112-7.46m242.208-.194c-5.227 2.686-8.025 9.377-8.072 19.303-.065 13.736 6.704 22.385 15.242 19.474 5.723-1.951 8.718-8.591 8.728-19.349.009-8.852-1.71-14.236-5.648-17.694-3.672-3.224-6.44-3.692-10.25-1.734m39.404-.32c-7.245 2.966-10.661 17.413-7.018 29.682 2.376 8.002 7.58 11.498 13.973 9.388 2.662-.879 3.993-2.273 5.984-6.269 4.091-8.209 3.377-22.773-1.439-29.373-2.856-3.914-7.171-5.2-11.5-3.428m-929.577 2.978c-6.219 6.219-1.887 16.077 7.066 16.077 5.461 0 7.868-1.414 9.645-5.666 4.204-10.061-8.898-18.224-16.711-10.411m364.965-1.423c-3.202 1.74-5.34 6.564-4.461 10.067 1.859 7.405 11.335 10.028 17.496 4.844 2.489-2.094 3.077-3.351 3.077-6.577 0-7.93-8.636-12.397-16.112-8.334m363.181 1.25c-6.85 6.357-2.824 16.25 6.612 16.25 5.431 0 8.887-2.16 10.298-6.438 3.144-9.524-9.387-16.795-16.91-9.812m37.854.173c-6.374 6.374-1.881 16.077 7.444 16.077 6.652 0 10.133-3.263 10.133-9.5 0-3.88-.476-5.083-2.806-7.087-4.202-3.615-10.877-3.384-14.771.51m-595.674.923c-2.165 1.338-14.351 21.446-13.826 22.814.586 1.528 12.156 1.893 14.426.455.993-.63 1.365-3.79 1.41-11.992.033-6.125-.137-11.334-.378-11.575-.241-.242-.976-.108-1.632.298m233.957 17.202c-3.363 1.349-5.585 7.275-4.247 11.327 2.166 6.563 11.362 8.751 16.964 4.036 2.562-2.155 3.077-3.312 3.077-6.911 0-3.599-.515-4.756-3.077-6.911-3.244-2.73-8.245-3.336-12.717-1.541m243.123.376c-3.774 1.682-5.329 4.246-5.329 8.788 0 4.485 2.304 7.502 6.646 8.701 4.999 1.38 8.965.338 11.874-3.119 3.292-3.913 3.199-7.986-.27-11.735-3.319-3.587-8.44-4.631-12.921-2.635M0 1136.999c0 2.004.143 2.004 619.25 1.668 340.587-.185 619.813-.486 620.5-.669.688-.182 1.214-1.269 1.171-2.415-.043-1.145-.268-1.633-.5-1.083-.28.666-207.796.916-620.421.748-619.83-.253-620-.252-620 1.751m.158.001c0 1.375.227 1.938.504 1.25.278-.687.278-1.812 0-2.5-.277-.687-.504-.125-.504 1.25" fill="undefined" fill-rule="evenodd"/></svg>